<svg width="94" height="34" viewBox="0 0 94 34" fill="none" xmlns="http://www.w3.org/2000/svg">
<g clip-path="url(#clip0_1_24)">
<path d="M10.3435 4.25003H-1.1876e-07V29.0417L10.3435 4.25003Z" fill="white"/>
<path d="M17.6212 4.25004H27.9512V29.0417L17.6212 4.25004Z" fill="white"/>
<path d="M13.9825 13.3873L20.5659 29.0416H16.2466L14.2789 24.0576H9.46095L13.9825 13.3873Z" fill="white"/>
<path d="M44.8257 20.0159L46.0453 23.5209C46.0858 23.6087 46.1464 23.6492 46.2542 23.6492H48.5992C48.7272 23.6492 48.7475 23.5884 48.7272 23.4601L43.8823 9.97361C43.8621 9.86555 43.8419 9.84529 43.7341 9.84529H40.823C40.7422 9.84529 40.695 9.90607 40.695 9.99386C40.6546 10.703 40.5939 10.9191 40.5063 11.1284L36.187 23.4399C36.1668 23.5884 36.214 23.6492 36.3352 23.6492H38.4309C38.5589 23.6492 38.6196 23.6087 38.6667 23.4804L39.819 20.0159H44.8257ZM40.4861 17.7265C41.1195 15.8085 41.9551 13.3503 42.292 11.9456H42.3122C42.73 13.4178 43.7138 16.3353 44.1586 17.7265H40.4861Z" fill="white"/>
<path d="M54.9559 23.8586C56.216 23.8586 57.5569 23.629 58.9181 23.0415C59.0259 23.0009 59.0461 22.9537 59.0461 22.8524C59.0057 22.4742 58.9585 21.9272 58.9585 21.5085V8.8121C58.9585 8.73106 58.9585 8.69054 58.8574 8.69054H56.5731C56.4855 8.69054 56.4451 8.73106 56.4451 8.83911V13.141C56.0879 13.1005 55.8386 13.0802 55.5421 13.0802C51.8562 13.0802 49.5921 15.5182 49.5921 18.564C49.5921 22.096 51.9168 23.8586 54.9559 23.8586V23.8586ZM56.4451 21.5085C56.0677 21.63 55.6499 21.6773 55.2254 21.6773C53.5543 21.6773 52.1864 20.7318 52.1864 18.4357C52.1864 16.4029 53.5947 15.2008 55.4612 15.2008C55.8386 15.2008 56.1688 15.2413 56.4451 15.3494V21.5085Z" fill="white"/>
<path d="M66.3335 13.0801C63.1866 13.0801 61.2392 15.4978 61.2392 18.4828C61.2392 21.1504 62.7891 23.8585 66.2863 23.8585C69.2445 23.8585 71.3199 21.6772 71.3199 18.4153C71.3199 15.5383 69.5612 13.0801 66.3335 13.0801ZM66.2055 15.2007C67.9844 15.2007 68.7391 16.7337 68.7391 18.4828C68.7391 20.6439 67.6273 21.7177 66.3335 21.7177C64.7365 21.7177 63.7931 20.3738 63.7931 18.4355C63.7931 16.4433 64.7971 15.2007 66.2055 15.2007V15.2007Z" fill="white"/>
<path d="M73.6816 8.69054C73.594 8.69054 73.5334 8.73106 73.5334 8.83911V23.2103C73.5334 23.2711 73.594 23.3791 73.6816 23.3994C74.6857 23.7101 75.7369 23.8586 76.8218 23.8586C79.9282 23.8586 82.947 21.9272 82.947 18.0372C82.947 15.2211 81.0198 13.0802 78.001 13.0802C77.3069 13.0802 76.66 13.1883 76.094 13.3774L76.0671 8.85937C76.0671 8.7108 76.0266 8.69054 75.8784 8.69054H73.6816ZM80.3662 18.2938C80.3662 20.6238 78.7759 21.7178 77.0576 21.7178C76.7005 21.7178 76.3838 21.6975 76.094 21.6098V15.4777C76.4242 15.3494 76.8218 15.2413 77.5562 15.2413C79.2139 15.2413 80.3662 16.2948 80.3662 18.2938Z" fill="white"/>
<path d="M91.4721 19.0501C92.4964 19.0501 93.3387 19.0298 93.6284 18.9623C93.7362 18.942 93.7767 18.9015 93.7969 18.8137C93.8575 18.5841 93.8845 18.1046 93.8845 17.5171C93.8845 15.5181 92.685 13.0801 89.5854 13.0801C86.4183 13.0801 84.6596 15.6666 84.6596 18.5841C84.6596 21.1707 86.0207 23.8585 89.8347 23.8585C91.2632 23.8585 92.1864 23.6289 92.9815 23.2507C93.0624 23.2102 93.1028 23.1426 93.1028 23.0211V21.272C93.1028 21.1707 93.0422 21.1504 92.9815 21.1909C92.1864 21.5286 91.3239 21.6974 90.3805 21.6974C88.2444 21.6974 87.2741 20.5156 87.2134 19.0501H91.4721ZM87.2134 17.2402C87.3819 16.2137 88.0288 15.0994 89.4775 15.0994C91.0745 15.0994 91.4923 16.4433 91.4923 17.0511C91.4923 17.0714 91.4923 17.1591 91.4923 17.2199C91.4047 17.2402 91.1352 17.2402 90.3401 17.2402H87.2134Z" fill="white"/>
</g>
<defs>
<clipPath id="clip0_1_24">
<rect width="94" height="34" fill="white"/>
</clipPath>
</defs>
</svg>
