<svg width="133" height="50" viewBox="0 0 133 50" fill="none" xmlns="http://www.w3.org/2000/svg">
<g clip-path="url(#clip0_1_94)">
<path fill-rule="evenodd" clip-rule="evenodd" d="M127.958 33.313C128.037 34.2188 128.76 35.3717 130.013 35.3717H130.746C131.03 35.3717 131.263 35.1384 131.263 34.8535V18.7017H131.259C131.245 18.4296 131.021 18.2117 130.746 18.2117H128.475C128.2 18.2117 127.976 18.4296 127.962 18.7017H127.958V20.0142C126.567 18.2955 124.373 17.5822 122.174 17.5822C117.174 17.5822 113.122 21.6472 113.122 26.662C113.122 31.6771 117.174 35.7423 122.174 35.7423C124.373 35.7423 126.771 34.8868 127.958 33.311V33.313ZM122.183 32.5645C119.003 32.5645 116.425 29.9221 116.425 26.662C116.425 23.4026 119.003 20.7601 122.183 20.7601C125.363 20.7601 127.94 23.4026 127.94 26.662C127.94 29.9221 125.363 32.5645 122.183 32.5645Z" fill="white"/>
<path fill-rule="evenodd" clip-rule="evenodd" d="M110.25 25.5106C110.25 20.7994 107.287 17.6211 102.561 17.6211C100.306 17.6211 98.4565 18.9294 97.8033 20.0532C97.6622 19.1745 97.1971 18.2507 95.7546 18.2507H95.0194C94.735 18.2507 94.5028 18.4843 94.5028 18.7692V33.3534C94.5028 33.3539 94.5028 33.355 94.5028 33.3557V34.9223H94.5056C94.5205 35.194 94.745 35.4122 95.0196 35.4122H97.2903C97.325 35.4122 97.3591 35.408 97.3921 35.4016C97.4071 35.3987 97.421 35.3927 97.4357 35.3886C97.4526 35.3834 97.4702 35.3794 97.4862 35.3727C97.5064 35.3643 97.5247 35.3531 97.5435 35.3426C97.5527 35.3369 97.5624 35.333 97.5713 35.3271C97.5939 35.3124 97.6147 35.2947 97.6348 35.2767C97.6381 35.2734 97.642 35.2712 97.6453 35.2681C97.6679 35.2462 97.6885 35.2221 97.7067 35.197C97.7635 35.1187 97.7983 35.024 97.8039 34.9223H97.8069V25.381C97.8069 22.8508 99.8522 20.7994 102.375 20.7994C104.898 20.7994 106.943 22.8508 106.943 25.381L106.945 33.3563L106.946 33.3534C106.946 33.3606 106.947 33.3678 106.947 33.3753V34.9223H106.95C106.965 35.194 107.189 35.4122 107.464 35.4122H109.735C109.77 35.4122 109.804 35.408 109.836 35.4016C109.85 35.3991 109.862 35.3937 109.876 35.39C109.894 35.3846 109.913 35.38 109.931 35.3727C109.95 35.3651 109.966 35.3543 109.984 35.3443C109.995 35.3383 110.006 35.3339 110.016 35.3271C110.037 35.3132 110.056 35.2965 110.075 35.2801C110.08 35.2756 110.086 35.2722 110.09 35.2677C110.112 35.2469 110.131 35.2244 110.148 35.2009C110.15 35.1991 110.151 35.1977 110.152 35.1959C110.208 35.1184 110.242 35.0247 110.248 34.9236C110.248 34.9229 110.249 34.9223 110.249 34.9223H110.252L110.25 25.5106Z" fill="white"/>
<path fill-rule="evenodd" clip-rule="evenodd" d="M86.6028 33.313C86.6822 34.2188 87.4051 35.3717 88.6576 35.3717H89.3903C89.6744 35.3717 89.9069 35.1384 89.9069 34.8535V18.7017H89.904C89.8892 18.4296 89.6646 18.2117 89.3903 18.2117H87.1196C86.845 18.2117 86.6208 18.4296 86.6054 18.7017H86.6028V20.0142C85.2115 18.2955 83.018 17.5822 80.8185 17.5822C75.8189 17.5822 71.766 21.6472 71.766 26.6621C71.766 31.6771 75.8189 35.7423 80.8185 35.7423C83.018 35.7423 85.4152 34.8869 86.6026 33.311L86.6028 33.313ZM80.8273 32.5644C77.6478 32.5644 75.0699 29.9221 75.0699 26.6621C75.0699 23.4026 77.6478 20.7601 80.8273 20.7601C84.0072 20.7601 86.5846 23.4026 86.5846 26.6621C86.5846 29.9221 84.0072 32.5644 80.8273 32.5644Z" fill="white"/>
<path fill-rule="evenodd" clip-rule="evenodd" d="M58.3382 30.9998C59.854 32.053 61.5086 32.5646 63.0986 32.5646C64.6134 32.5646 66.1794 31.777 66.1794 30.406C66.1794 28.5757 62.7671 28.2909 60.6232 27.5601C58.4788 26.8293 56.6319 25.3185 56.6319 22.8719C56.6319 19.1281 59.9577 17.5819 63.0619 17.5819C65.0287 17.5819 67.0579 18.2324 68.3736 19.1642C68.8266 19.5086 68.5507 19.9039 68.5507 19.9039L67.2949 21.7029C67.1537 21.9056 66.9069 22.0806 66.5527 21.8613C66.1983 21.6421 64.9557 20.7599 63.0619 20.7599C61.1679 20.7599 60.0271 21.6372 60.0271 22.7245C60.0271 24.0284 61.5098 24.4385 63.2465 24.8829C66.2731 25.7011 69.5746 26.6846 69.5746 30.406C69.5746 33.7045 66.4984 35.743 63.0986 35.743C60.5223 35.743 58.3288 35.0064 56.4891 33.6523C56.1058 33.2676 56.3735 32.9104 56.3735 32.9104L57.6232 31.1205C57.8775 30.7859 58.198 30.9026 58.3382 30.9998Z" fill="white"/>
<path fill-rule="evenodd" clip-rule="evenodd" d="M49.6089 33.313C49.6882 34.2188 50.4112 35.3717 51.6635 35.3717H52.3964C52.6804 35.3717 52.9132 35.1384 52.9132 34.8535V18.7017H52.91C52.8952 18.4296 52.6709 18.2117 52.3964 18.2117H50.1257C49.8511 18.2117 49.6268 18.4296 49.6116 18.7017H49.6089V20.0142C48.2176 18.2955 46.0242 17.5822 43.8247 17.5822C38.825 17.5822 34.772 21.6472 34.772 26.6621C34.772 31.6771 38.825 35.7423 43.8247 35.7423C46.0242 35.7423 48.4213 34.8869 49.6085 33.311L49.6089 33.313ZM43.8335 32.5644C40.6537 32.5644 38.076 29.9221 38.076 26.6621C38.076 23.4026 40.6537 20.7601 43.8335 20.7601C47.0132 20.7601 49.5907 23.4026 49.5907 26.6621C49.5907 29.9221 47.0132 32.5644 43.8335 32.5644Z" fill="white"/>
<path fill-rule="evenodd" clip-rule="evenodd" d="M22.0805 27.2792C18.716 27.2792 15.9884 30.0128 15.9884 33.3851C15.9884 36.7571 18.716 39.4907 22.0805 39.4907C25.4451 39.4907 28.1726 36.7571 28.1726 33.3851C28.1726 30.0128 25.4451 27.2792 22.0805 27.2792ZM6.25275 27.2798C2.8882 27.2798 0.160645 30.0128 0.160645 33.3851C0.160645 36.7571 2.8882 39.4907 6.25275 39.4907C9.61744 39.4907 12.3451 36.7571 12.3451 33.3851C12.3451 30.0128 9.61744 27.2798 6.25275 27.2798ZM20.2586 19.6471C20.2586 23.0194 17.5312 25.7532 14.1666 25.7532C10.802 25.7532 8.07455 23.0194 8.07455 19.6471C8.07455 16.2755 10.802 13.5417 14.1666 13.5417C17.5312 13.5417 20.2586 16.2755 20.2586 19.6471Z" fill="white"/>
</g>
<defs>
<clipPath id="clip0_1_94">
<rect width="132" height="50" fill="white" transform="translate(0.160645)"/>
</clipPath>
</defs>
</svg>
