<svg width="94" height="46" viewBox="0 0 94 46" fill="none" xmlns="http://www.w3.org/2000/svg">
<path fill-rule="evenodd" clip-rule="evenodd" d="M21.0557 39.1826C22.8572 38.0674 24.3714 36.7065 25.6524 35.2894C26.5695 37.1575 28.4101 38.4326 30.3618 38.4326C31.8658 38.4326 33.3698 37.6826 34.4038 36.2764C34.7798 37.5889 35.7198 38.4326 37.3178 38.4326C38.517 38.4326 41.1313 37.212 43.5017 35.4034L43.2397 36.7451C43.1457 37.1201 43.1457 37.4013 43.1457 37.5888C43.2397 38.1513 43.6157 38.4326 44.1797 38.4326C45.3077 38.4326 46.9057 37.4013 47.2817 35.7138L47.8457 33.3701C48.5037 30.3701 52.9217 25.8701 54.1437 25.8701C54.2377 25.8701 54.4257 25.9638 54.4257 26.1513C54.463 26.449 54.2486 27.0125 53.9352 27.836C53.4591 29.0873 52.7545 30.9389 52.3577 33.3701C52.1697 34.1201 52.1697 34.8701 52.2637 35.4326C52.4517 37.2138 53.4857 38.4326 55.4597 38.4326C57.149 38.4326 60.8115 36.9944 63.3785 34.1181C63.572 35.6794 63.9031 37.0074 64.3897 37.8701C64.5777 38.2451 65.0477 38.3389 65.5177 38.3389C66.0817 38.3389 66.8337 38.1514 67.6797 37.6826C69.6537 36.6514 72.1917 34.2139 74.6357 30.6514C75.0117 30.7451 75.2937 30.7451 75.5757 30.7451C76.5511 30.7451 77.6412 30.4018 78.6533 29.7943C78.2327 31.0612 78.0687 32.355 78.2078 33.5576C78.5838 36.3701 80.9338 38.5263 83.4718 38.5263C84.8818 38.5263 86.3858 37.6826 87.4198 36.3701C87.7958 38.1513 88.9238 40.0263 91.7438 41.1513C91.9318 41.2451 92.1198 41.2451 92.3078 41.2451C92.8718 41.2451 93.2478 40.8701 93.1538 40.4013C93.1538 40.2138 93.0598 39.9326 92.7778 39.7451C92.1198 39.1826 91.3678 38.1513 91.1798 36.5576C91.0858 35.8076 91.0858 34.8701 91.5558 33.9326C92.1198 31.4013 92.2138 30.6513 92.2138 30.3701C92.1198 29.7138 91.6498 29.4326 91.0858 29.4326C89.9578 29.4326 88.3598 30.5576 87.9838 32.1513C87.3258 34.5888 85.6338 36.1826 84.5058 36.1826C83.0958 36.1826 82.3438 34.6826 82.1558 33.0888C81.6858 29.1513 84.1298 24.3701 87.7958 24.3701C88.8298 24.3701 90.0518 24.7451 90.1458 25.8701C90.2613 26.907 89.6316 27.1652 89.1506 27.3624C88.8488 27.4861 88.6056 27.5858 88.6418 27.8388C88.7358 28.5888 89.9578 28.7763 90.8038 28.7763C91.5558 28.7763 93.9998 28.2138 93.6238 25.4951C93.3418 23.3388 90.9918 22.3076 88.3598 22.3076C85.2178 22.3076 82.5437 23.8942 80.7227 26.0898C80.4709 26.238 80.2052 26.503 79.8997 26.8076C79.3357 27.4639 78.2077 28.1201 76.7977 28.1201C76.6097 28.1201 76.2337 28.0264 76.2337 28.0264C77.1737 26.2451 77.8317 24.3701 77.8317 22.7764C77.8317 20.1514 76.2337 18.8389 74.4477 18.8389C72.1917 18.8389 69.8417 20.8076 69.8417 24.7451C69.8417 27.0889 70.7817 28.9639 72.3797 29.9951C70.4997 32.9951 67.9617 35.5264 67.5857 35.5264C67.4559 35.5264 67.4158 35.3923 67.3724 35.2476C67.3529 35.1827 67.3328 35.1157 67.3037 35.0576C67.0217 34.0264 66.7397 31.9639 66.7397 30.7451C66.7397 28.4951 67.1157 26.2451 67.9617 23.9014C68.0557 23.6201 68.1497 23.3389 68.1497 23.1514C68.1497 22.4951 67.6797 22.2139 67.1157 22.2139C65.9877 22.2139 64.2017 23.5264 63.7317 24.9326C63.3557 26.2451 63.1677 28.1201 63.1677 30.3701C63.1677 30.7828 63.1744 31.192 63.188 31.5951C60.9447 34.6111 58.1765 35.6201 57.3397 35.6201C56.3057 35.6201 56.1177 34.6826 56.3057 34.3076C56.9637 31.5888 57.8097 28.4951 58.5617 26.3388C58.9377 25.3076 59.1257 24.3701 59.0317 23.8076C58.8437 22.7763 58.1857 22.3076 57.2457 22.3076C54.9897 22.3076 51.4177 24.5576 49.0677 27.6513L49.8197 24.2763C49.9137 23.9013 49.9137 23.6201 49.9137 23.4326C49.8197 22.7763 49.4437 22.4951 48.8797 22.4951C46.2477 22.4951 45.7777 23.8076 45.4957 25.1201C45.4413 25.4459 44.6932 29.2936 44.0731 32.4744C42.0673 34.3104 39.8197 35.5264 39.1978 35.5264C38.4458 35.5264 38.1638 34.9639 38.1638 34.4951C38.1638 34.1714 38.3506 33.2886 38.5271 32.4546C38.6573 31.8396 38.7819 31.2509 38.8218 30.9326C38.9158 30.5576 38.9158 30.2764 38.9158 30.0889C38.8218 29.5264 38.3518 29.2451 37.7878 29.2451C36.6598 29.2451 35.0618 30.3701 34.6858 31.9639C34.1218 34.4014 32.4298 35.9951 31.3018 35.9951C29.8918 35.9951 29.1398 34.4951 28.9518 32.9951C28.4818 29.6201 30.6438 24.1826 34.5918 24.1826C35.7198 24.1826 36.8478 24.5576 36.9418 25.6826C37.0556 26.7611 36.4802 27.0148 36.0294 27.2135C35.7356 27.343 35.4947 27.4492 35.5318 27.7451C35.6258 28.4951 36.8478 28.6826 37.5998 28.6826C38.4458 28.6826 40.7958 28.1201 40.4198 25.4014C40.1378 23.2451 37.8818 22.1201 35.1558 22.1201C28.8335 22.1201 24.6263 28.3568 25.081 33.3008C23.4755 35.1747 21.8714 36.3015 18.9877 37.7763C17.3897 38.6201 15.5097 39.0888 13.8177 39.0888C8.55374 39.0888 6.01574 34.3076 5.54574 30.1826C4.22974 19.6826 13.6297 5.15134 20.1157 5.15134C21.6197 5.15134 22.9357 6.46384 23.2177 8.52634C23.5937 11.7138 23.4997 13.9638 20.2097 16.6826C19.8337 16.9638 19.7397 17.4326 19.9277 17.7138C20.2097 18.0888 21.1497 18.1826 22.9357 17.2451C26.5077 15.4638 27.7297 12.7451 27.3537 9.55759C26.9777 5.99509 23.8757 3.08884 19.7397 3.08884C17.6717 3.08884 15.5097 3.65134 13.5357 4.87009C4.98174 10.1201 -0.564261 21.9326 0.469739 30.9326C0.84574 33.8388 2.06774 36.9326 4.32374 39.0888C5.82774 40.4951 8.55374 42.1826 11.8437 42.1826C15.4157 42.1826 18.4237 40.8701 21.0557 39.1826ZM73.8837 26.8076C72.9437 25.7764 72.1917 24.1826 72.1917 22.6826C72.1917 21.8389 72.4737 20.9014 73.1317 20.9014C73.6957 20.9014 74.4477 21.7451 74.4477 23.7139C74.4477 24.7451 74.2597 25.7764 73.8837 26.8076Z" fill="white"/>
</svg>
