<svg width="142" height="50" viewBox="0 0 142 50" fill="none" xmlns="http://www.w3.org/2000/svg">
<g clip-path="url(#clip0_1_70)">
<path fill-rule="evenodd" clip-rule="evenodd" d="M19.1776 5.20816C9.1195 5.20816 0.972916 13.3331 0.972916 23.3644C0.972916 31.3985 6.184 38.1844 13.4204 40.5901C14.3306 40.749 14.6719 40.2043 14.6719 39.7277C14.6719 39.2965 14.6492 37.8667 14.6492 36.3461C10.0752 37.1859 8.89194 35.2341 8.52785 34.2128C8.32305 33.6908 7.43557 32.0794 6.66187 31.6482C6.02471 31.3078 5.11448 30.468 6.63912 30.4453C8.07273 30.4226 9.09675 31.7617 9.43808 32.3064C11.0765 35.0525 13.6934 34.2809 14.7402 33.8043C14.8995 32.6241 15.3774 31.8298 15.9007 31.3758C11.8502 30.9219 7.61762 29.356 7.61762 22.4112C7.61762 20.4367 8.32305 18.8026 9.48359 17.5317C9.30155 17.0778 8.66438 15.2168 9.66564 12.7203C9.66564 12.7203 11.1903 12.2437 14.6719 14.5813C16.1283 14.1728 17.6757 13.9685 19.2231 13.9685C20.7705 13.9685 22.3179 14.1728 23.7743 14.5813C27.2559 12.221 28.7805 12.7203 28.7805 12.7203C29.7818 15.2168 29.1446 17.0778 28.9626 17.5317C30.1231 18.8026 30.8286 20.414 30.8286 22.4112C30.8286 29.3787 26.5732 30.9219 22.5227 31.3758C23.1826 31.9432 23.7515 33.0326 23.7515 34.7348C23.7515 37.1632 23.7287 39.115 23.7287 39.7277C23.7287 40.2043 24.0701 40.7717 24.9803 40.5901C28.5943 39.3734 31.7346 37.0569 33.9594 33.9668C36.1841 30.8767 37.3813 27.1686 37.3822 23.3644C37.3822 13.3331 29.2357 5.20816 19.1776 5.20816Z" fill="white"/>
<path d="M85.84 32.128H85.7975C85.8166 32.128 85.8294 32.1492 85.8485 32.1513H85.8612L85.84 32.1301V32.128ZM85.8485 32.1513C85.651 32.1534 85.154 32.2572 84.6294 32.2572C82.9728 32.2572 82.3993 31.4946 82.3993 30.4991V23.8669H85.7763C85.9674 23.8669 86.1161 23.6974 86.1161 23.4644V19.8634C86.1161 19.6728 85.9462 19.5033 85.7763 19.5033H82.3993V15.0339C82.3993 14.8644 82.2931 14.7585 82.102 14.7585H77.5144C77.3233 14.7585 77.2171 14.8644 77.2171 15.0339V19.6304C77.2171 19.6304 74.902 20.2023 74.7534 20.2235C74.5835 20.2659 74.4773 20.4142 74.4773 20.5836V23.4644C74.4773 23.6974 74.6472 23.8669 74.8383 23.8669H77.1958V30.8147C77.1958 35.9831 80.8064 36.5127 83.2701 36.5127C84.3958 36.5127 85.7551 36.1526 85.9674 36.0467C86.0949 36.0043 86.1586 35.8561 86.1586 35.7078V32.5304C86.1615 32.4403 86.1318 32.3522 86.0748 32.2821C86.0179 32.2121 85.9375 32.1649 85.8485 32.1492V32.1513ZM136.176 27.489C136.176 23.6551 134.625 23.1467 132.99 23.3161C131.716 23.4009 130.696 24.0363 130.696 24.0363V31.4925C130.696 31.4925 131.737 32.2127 133.287 32.2551C135.475 32.3186 136.176 31.5349 136.176 27.489ZM141.337 27.1501C141.337 34.4157 138.979 36.4915 134.859 36.4915C131.376 36.4915 129.507 34.7334 129.507 34.7334C129.507 34.7334 129.422 35.7078 129.316 35.8349C129.252 35.962 129.146 36.0043 129.018 36.0043H125.875C125.663 36.0043 125.472 35.8349 125.472 35.6442L125.514 12.1107C125.514 11.9201 125.684 11.7506 125.875 11.7506H130.399C130.59 11.7506 130.76 11.9201 130.76 12.1107V20.0964C130.76 20.0964 132.502 18.9738 135.05 18.9738L135.029 18.9314C137.578 18.9314 141.337 19.8846 141.337 27.1501ZM122.817 19.5033H118.357C118.123 19.5033 117.996 19.6728 117.996 19.9058V31.429C117.996 31.429 116.827 32.2551 115.234 32.2551C113.642 32.2551 113.174 31.5349 113.174 29.9462V19.8846C113.174 19.694 113.004 19.5245 112.813 19.5245H108.268C108.077 19.5245 107.907 19.694 107.907 19.8846V30.7088C107.907 35.3689 110.519 36.5339 114.109 36.5339C117.061 36.5339 119.461 34.9028 119.461 34.9028C119.461 34.9028 119.567 35.729 119.631 35.8561C119.673 35.962 119.822 36.0467 119.971 36.0467H122.817C123.05 36.0467 123.178 35.8772 123.178 35.6866L123.22 19.8634C123.22 19.6728 123.05 19.5033 122.817 19.5033ZM72.4808 19.4821H67.957C67.7658 19.4821 67.5959 19.6728 67.5959 19.9058V35.4536C67.5959 35.8772 67.872 36.0255 68.2331 36.0255H72.3109C72.7357 36.0255 72.8419 35.8349 72.8419 35.4536V19.8422C72.8419 19.6516 72.672 19.4821 72.4808 19.4821ZM70.2508 12.3225C68.6154 12.3225 67.3198 13.6147 67.3198 15.2457C67.3198 16.8767 68.6154 18.1688 70.2508 18.1688C71.8437 18.1688 73.1392 16.8767 73.1392 15.2457C73.1392 13.6147 71.8437 12.3225 70.2508 12.3225ZM105.273 11.793H100.792C100.601 11.793 100.431 11.9624 100.431 12.1531V20.8166H93.401V12.1531C93.401 11.9624 93.2311 11.793 93.04 11.793H88.5161C88.325 11.793 88.155 11.9624 88.155 12.1531V35.6866C88.155 35.8772 88.3462 36.0467 88.5161 36.0467H93.04C93.2311 36.0467 93.401 35.8772 93.401 35.6866V25.625H100.431L100.389 35.6866C100.389 35.8772 100.558 36.0467 100.75 36.0467H105.273C105.465 36.0467 105.635 35.8772 105.635 35.6866V12.1531C105.635 11.9624 105.465 11.793 105.273 11.793ZM65.1959 22.2147V34.3733C65.1959 34.458 65.1747 34.6063 65.0685 34.6487C65.0685 34.6487 62.4136 36.5339 58.0385 36.5339C52.75 36.5339 46.4846 34.8817 46.4846 23.994C46.4846 13.1063 51.9642 10.861 57.3163 10.8821C61.9464 10.8821 63.8154 11.9201 64.1127 12.1107C64.1977 12.2166 64.2402 12.3013 64.2402 12.4073L63.3482 16.1777C63.3482 16.3683 63.157 16.6014 62.9234 16.5378C62.1588 16.3048 61.0119 15.8388 58.3146 15.8388C55.1925 15.8388 51.8367 16.7284 51.8367 23.7398C51.8367 30.7511 55.0226 31.5772 57.3163 31.5772C59.2703 31.5772 59.9712 31.3442 59.9712 31.3442V26.4723H56.8491C56.6155 26.4723 56.4456 26.3028 56.4456 26.1122V22.2147C56.4456 22.024 56.6155 21.8546 56.8491 21.8546H64.7924C65.026 21.8546 65.1959 22.024 65.1959 22.2147Z" fill="white"/>
</g>
<defs>
<clipPath id="clip0_1_70">
<rect width="141" height="50" fill="white" transform="translate(0.9729)"/>
</clipPath>
</defs>
</svg>
