<svg width="143" height="51" viewBox="0 0 143 51" fill="none" xmlns="http://www.w3.org/2000/svg">
<g clip-path="url(#clip0_1_77)">
<path d="M103.13 15.1844H100.34V36.0239H111.659V33.436H103.13V15.1844ZM122.434 32.3691C121.73 33.0955 120.551 33.8219 118.963 33.8219C116.831 33.8219 115.969 32.7777 115.969 31.3929C115.969 29.3271 117.398 28.3283 120.46 28.3283C121.027 28.3283 121.957 28.3964 122.434 28.4872V32.3691ZM119.553 19.7473C117.284 19.7473 115.22 20.5419 113.61 21.8812L114.608 23.6065C115.742 22.9482 117.148 22.2671 119.167 22.2671C121.458 22.2671 122.479 23.4476 122.479 25.4226V26.4441C122.025 26.3533 121.118 26.2852 120.528 26.2852C115.629 26.2852 113.156 28.0105 113.156 31.5972C113.156 34.8208 115.13 36.4326 118.124 36.4326C120.143 36.4326 122.071 35.5018 122.728 34.0036L123.227 36.0466H125.201V25.3772C125.178 21.9947 123.704 19.7473 119.553 19.7473ZM134.206 33.9355C133.163 33.9355 132.233 33.7992 131.529 33.4814V23.8562C132.482 23.0617 133.662 22.4941 135.159 22.4941C137.858 22.4941 138.901 24.401 138.901 27.4884C138.924 31.8697 137.223 33.9355 134.206 33.9355ZM135.385 19.7473C132.89 19.7473 131.529 21.4499 131.529 21.4499V18.7485V15.1844H128.785V35.5245C130.146 36.092 132.028 36.4099 134.07 36.4099C139.287 36.4099 141.805 33.0728 141.805 27.3068C141.805 22.7666 139.491 19.7473 135.385 19.7473ZM72.6899 17.4545C75.1624 17.4545 76.7729 18.2718 77.8163 19.1117L79.0185 17.0232C77.3853 15.593 75.1624 14.8212 72.826 14.8212C66.8831 14.8212 62.7095 18.4534 62.7095 25.7631C62.7095 33.436 67.2007 36.4326 72.3497 36.4326C74.9355 36.4326 77.1131 35.8196 78.5421 35.2294L78.4741 27.0343V24.4237H70.8299V27.0116H75.7068L75.7748 33.2317C75.1397 33.5495 74.0282 33.7992 72.5312 33.7992C68.4029 33.7992 65.6356 31.1886 65.6356 25.7177C65.6356 20.1559 68.4936 17.4545 72.6899 17.4545ZM92.3787 15.1844H89.6341V18.6804V30.78C89.6341 34.1625 91.1084 36.4099 95.2594 36.4099C95.8265 36.4099 96.3936 36.3645 96.9379 36.251V33.7992C96.5523 33.8674 96.1214 33.8901 95.6677 33.8901C93.3767 33.8901 92.356 32.7096 92.356 30.7346V22.4033H96.9379V20.1332H92.356L92.3787 15.1844ZM82.6931 36.0239H85.4377V20.1332H82.6931V36.0239ZM82.6931 17.9312H85.4377V15.1844H82.6931V17.9312Z" fill="white"/>
<path d="M25.2144 48.4637L34.3783 20.2691H16.0505L25.2144 48.4637Z" fill="white"/>
<path d="M25.2142 48.4637L16.0503 20.2691H3.2345L25.2142 48.4637Z" fill="white"/>
<path d="M3.23508 20.2691L0.44509 28.8274C0.195579 29.5992 0.467773 30.4618 1.12558 30.9385L25.1921 48.441L3.23508 20.2691Z" fill="white"/>
<path d="M3.2345 20.2693H16.073L10.5384 3.28894C10.2662 2.4036 9.01863 2.4036 8.74644 3.28894L3.2345 20.2693Z" fill="white"/>
<path d="M25.2145 48.4637L34.3784 20.2691H47.2169L25.2145 48.4637Z" fill="white"/>
<path d="M47.1946 20.2691L49.9846 28.8274C50.2341 29.5992 49.9619 30.4618 49.3041 30.9385L25.2375 48.441L47.1946 20.2691Z" fill="white"/>
<path d="M47.1942 20.2692H34.3557L39.8677 3.28889C40.1625 2.42625 41.3874 2.42625 41.6596 3.28889L47.1942 20.2692Z" fill="white"/>
</g>
<defs>
<clipPath id="clip0_1_77">
<rect width="142" height="50" fill="white" transform="translate(0.354126 0.547363)"/>
</clipPath>
</defs>
</svg>
