<svg width="118" height="50" viewBox="0 0 118 50" fill="none" xmlns="http://www.w3.org/2000/svg">
<path d="M50.372 26.7188C50.372 32.2638 46.0234 36.3499 40.6866 36.3499C35.3498 36.3499 31.0012 32.2638 31.0012 26.7188C31.0012 21.1347 35.3498 17.0877 40.6866 17.0877C46.0234 17.0877 50.372 21.1347 50.372 26.7188ZM46.1322 26.7188C46.1322 23.2537 43.6118 20.8828 40.6866 20.8828C37.7614 20.8828 35.241 23.2537 35.241 26.7188C35.241 30.1492 37.7614 32.5548 40.6866 32.5548C43.6118 32.5548 46.1322 30.1448 46.1322 26.7188Z" fill="white"/>
<path d="M71.2666 26.7188C71.2666 32.2638 66.9179 36.3499 61.5812 36.3499C56.2444 36.3499 51.8958 32.2638 51.8958 26.7188C51.8958 21.139 56.2444 17.0877 61.5812 17.0877C66.9179 17.0877 71.2666 21.1347 71.2666 26.7188ZM67.0268 26.7188C67.0268 23.2537 64.5064 20.8828 61.5812 20.8828C58.656 20.8828 56.1356 23.2537 56.1356 26.7188C56.1356 30.1492 58.656 32.5548 61.5812 32.5548C64.5064 32.5548 67.0268 30.1448 67.0268 26.7188Z" fill="white"/>
<path d="M91.2907 17.6696V34.9604C91.2907 42.073 87.0857 44.9779 82.1145 44.9779C77.4351 44.9779 74.6187 41.8558 73.5565 39.3026L77.2479 37.7698C77.9052 39.3373 79.5158 41.1871 82.1102 41.1871C85.2922 41.1871 87.2641 39.2288 87.2641 35.5422V34.1571H87.1161C86.1672 35.3251 84.3389 36.3455 82.0318 36.3455C77.2044 36.3455 72.7817 32.1509 72.7817 26.7535C72.7817 21.3171 77.2044 17.0877 82.0318 17.0877C84.3346 17.0877 86.1628 18.1081 87.1161 19.2415H87.2641V17.6739H91.2907V17.6696ZM87.5645 26.7535C87.5645 23.3623 85.2966 20.8828 82.4105 20.8828C79.4853 20.8828 77.0346 23.3623 77.0346 26.7535C77.0346 30.1101 79.4853 32.5548 82.4105 32.5548C85.2966 32.5548 87.5645 30.1101 87.5645 26.7535Z" fill="white"/>
<path d="M97.9285 7.53481V35.7593H93.7932V7.53481H97.9285Z" fill="white"/>
<path d="M114.044 29.8887L117.335 32.0772C116.273 33.6448 113.713 36.3456 109.29 36.3456C103.806 36.3456 99.7094 32.1163 99.7094 26.7146C99.7094 20.9872 103.84 17.0835 108.816 17.0835C113.826 17.0835 116.277 21.061 117.078 23.2104L117.517 24.3046L104.611 29.6369C105.599 31.5692 107.136 32.5549 109.29 32.5549C111.449 32.5549 112.947 31.4954 114.044 29.8887ZM103.914 26.4236L112.542 22.85C112.068 21.6472 110.64 20.8091 108.959 20.8091C106.805 20.8091 103.806 22.7067 103.914 26.4236V26.4236Z" fill="white"/>
<path d="M15.3478 24.213V20.127H29.1511C29.2861 20.8391 29.3557 21.6815 29.3557 22.5934C29.3557 25.659 28.5156 29.4498 25.808 32.1506C23.1745 34.8863 19.8096 36.3452 15.3521 36.3452C7.09016 36.3452 0.142776 29.6321 0.142776 21.3906C0.142776 13.149 7.09016 6.43592 15.3521 6.43592C19.9228 6.43592 23.1788 8.22492 25.6252 10.5567L22.7348 13.4399C20.9806 11.7986 18.6038 10.522 15.3478 10.522C9.31454 10.522 4.59589 15.3722 4.59589 21.3906C4.59589 27.4089 9.31454 32.2592 15.3478 32.2592C19.2611 32.2592 21.4899 30.6917 22.9177 29.2674C24.0756 28.1124 24.8373 26.4623 25.1377 24.2087L15.3478 24.213V24.213Z" fill="white"/>
</svg>
