<svg width="187" height="51" viewBox="0 0 187 51" fill="none" xmlns="http://www.w3.org/2000/svg">
<g clip-path="url(#clip0_1_89)">
<path fill-rule="evenodd" clip-rule="evenodd" d="M56.6632 36.1766C55.9786 35.915 55.5304 35.361 55.5304 34.6223C55.5304 33.7281 56.2672 32.991 57.1635 32.991C57.4275 32.991 57.6393 33.0433 57.8235 33.1218C59.0459 33.6869 60.3776 33.9749 61.7236 33.9651C64.4664 33.9651 65.7573 32.6493 65.7573 30.1192V29.4344C64.5708 30.8579 63.28 31.7275 61.145 31.7275C57.8496 31.7275 54.8704 29.3297 54.8704 25.1406V25.0899C54.8704 20.8746 57.9018 18.5046 61.145 18.5046C63.3322 18.5046 64.623 19.428 65.7035 20.613V20.5853C65.7035 19.5049 66.5999 18.6108 67.7081 18.6108C68.8132 18.6108 69.7096 19.5049 69.7096 20.6114V29.6991C69.7096 32.2276 69.1048 34.0698 67.9184 35.2548C66.5999 36.5737 64.5708 37.1523 61.8295 37.1523C60.0604 37.1679 58.3054 36.8364 56.6632 36.1766V36.1766ZM65.7573 25.1422V25.0899C65.7573 23.1661 64.2531 21.8226 62.3038 21.8226C60.3545 21.8226 58.878 23.1661 58.878 25.0899V25.1422C58.878 27.0905 60.3545 28.4079 62.3038 28.4079C64.2531 28.4079 65.7573 27.0644 65.7573 25.1422V25.1422ZM71.9781 20.6114C71.9781 19.5049 72.8745 18.6108 73.9811 18.6108C75.0893 18.6108 75.9841 19.5049 75.9841 20.6114V21.2424C76.5643 19.8743 77.5129 18.6108 78.7009 18.6108C79.9395 18.6108 80.6501 19.4264 80.6501 20.5591C80.6501 21.6118 79.9656 22.2443 79.1475 22.429C77.1184 22.9045 75.9857 24.4573 75.9857 27.3014V31.0411C75.9857 32.1476 75.0893 33.0433 73.9811 33.0433C73.7186 33.0439 73.4584 32.9926 73.2157 32.8924C72.9729 32.7921 72.7522 32.6449 72.5661 32.4591C72.3801 32.2733 72.2324 32.0526 72.1315 31.8095C72.0306 31.5665 71.9785 31.3059 71.9781 31.0426V20.6114V20.6114ZM80.1759 28.8296V28.7772C80.1759 25.6947 82.5211 24.2727 85.8702 24.2727C87.2931 24.2727 88.3214 24.5097 89.3237 24.8513V24.6143C89.3237 22.9568 88.2953 22.0335 86.2923 22.0335C85.3547 22.0234 84.421 22.1568 83.5234 22.429C83.3382 22.4978 83.1423 22.5337 82.9448 22.5352C82.7281 22.5393 82.5129 22.5 82.3116 22.4197C82.1102 22.3394 81.9269 22.2197 81.7723 22.0675C81.6176 21.9153 81.4948 21.7337 81.411 21.5334C81.3272 21.3331 81.284 21.118 81.284 20.9008C81.284 20.1898 81.7291 19.5849 82.3646 19.3464C83.6293 18.8724 85 18.6108 86.871 18.6108C89.0582 18.6108 90.6406 19.1894 91.6414 20.1898C92.6958 21.2424 93.1716 22.7983 93.1716 24.6943V31.1196C93.1716 32.1999 92.3014 33.0433 91.2208 33.0433C90.0604 33.0433 89.2961 32.2276 89.2961 31.3843V31.3566C88.3214 32.4369 86.9784 33.1479 85.0261 33.1479C82.3646 33.1479 80.1759 31.6213 80.1759 28.8296V28.8296ZM89.3759 27.9062V27.1967C88.5702 26.8417 87.6988 26.6618 86.8188 26.6688C85.1043 26.6688 84.0514 27.3537 84.0514 28.6187V28.6711C84.0514 29.7514 84.9478 30.3839 86.2386 30.3839C88.1112 30.3839 89.3759 29.3559 89.3759 27.9062ZM95.3066 20.6114C95.3066 19.5049 96.203 18.6108 97.3112 18.6108C98.4178 18.6108 99.3142 19.5049 99.3142 20.6114V20.77C100.235 19.5849 101.449 18.5046 103.478 18.5046C105.323 18.5046 106.72 19.3202 107.458 20.7438C108.697 19.2956 110.175 18.5046 112.097 18.5046C115.076 18.5046 116.87 20.2959 116.87 23.694V31.0411C116.87 32.1476 115.972 33.0433 114.866 33.0433C114.603 33.0439 114.343 32.9926 114.1 32.8924C113.857 32.7922 113.636 32.645 113.45 32.4592C113.264 32.2734 113.116 32.0527 113.015 31.8097C112.914 31.5666 112.862 31.306 112.861 31.0426V25.0098C112.861 23.1138 112.017 22.1396 110.516 22.1396C109.013 22.1396 108.091 23.1138 108.091 25.0098V31.0426C108.091 32.1476 107.196 33.0433 106.088 33.0433C105.557 33.0441 105.049 32.8338 104.673 32.4587C104.297 32.0835 104.086 31.5742 104.085 31.0426V25.0098C104.085 23.1138 103.24 22.1396 101.739 22.1396C100.235 22.1396 99.3142 23.1138 99.3142 25.0098V31.0426C99.3142 32.1476 98.4178 33.0433 97.3112 33.0433C97.0485 33.0441 96.7882 32.993 96.5452 32.8928C96.3023 32.7927 96.0814 32.6455 95.8952 32.4597C95.709 32.2738 95.5612 32.053 95.4602 31.8099C95.3592 31.5667 95.307 31.306 95.3066 31.0426V20.6114V20.6114ZM119.031 20.6114C119.031 19.5049 119.928 18.6108 121.034 18.6108C122.142 18.6108 123.039 19.5049 123.039 20.6114V20.77C123.96 19.5849 125.172 18.5046 127.203 18.5046C129.048 18.5046 130.444 19.3202 131.183 20.7438C132.421 19.2956 133.898 18.5046 135.821 18.5046C138.8 18.5046 140.593 20.2959 140.593 23.694V31.0411C140.593 32.1476 139.697 33.0433 138.588 33.0433C138.058 33.0441 137.55 32.8338 137.174 32.4587C136.798 32.0835 136.587 31.5742 136.585 31.0426V25.0098C136.585 23.1138 135.741 22.1396 134.24 22.1396C132.736 22.1396 131.815 23.1138 131.815 25.0098V31.0426C131.815 32.1476 130.919 33.0433 129.812 33.0433C129.55 33.0439 129.289 32.9926 129.047 32.8924C128.804 32.7921 128.583 32.6449 128.397 32.4591C128.211 32.2733 128.063 32.0526 127.963 31.8095C127.862 31.5665 127.809 31.3059 127.809 31.0426V25.0098C127.809 23.1138 126.965 22.1396 125.462 22.1396C123.96 22.1396 123.037 23.1138 123.037 25.0098V31.0426C123.037 32.1476 122.142 33.0433 121.034 33.0433C120.772 33.0439 120.511 32.9926 120.269 32.8924C120.026 32.7921 119.805 32.6449 119.619 32.4591C119.433 32.2733 119.285 32.0526 119.185 31.8095C119.084 31.5665 119.032 31.3059 119.031 31.0426V20.6114V20.6114ZM141.911 28.8296V28.7772C141.911 25.6947 144.258 24.2727 147.606 24.2727C148.781 24.262 149.95 24.4579 151.058 24.8513V24.6143C151.058 22.9568 150.029 22.0335 148.026 22.0335C146.92 22.0335 146.023 22.192 145.259 22.429C145.074 22.4978 144.878 22.5337 144.68 22.5352C144.464 22.5397 144.248 22.5007 144.046 22.4206C143.845 22.3404 143.661 22.2207 143.506 22.0685C143.352 21.9163 143.229 21.7346 143.145 21.534C143.061 21.3335 143.018 21.1182 143.018 20.9008C143.018 20.1898 143.468 19.5849 144.099 19.3464C145.365 18.8724 146.736 18.6108 148.607 18.6108C150.795 18.6108 152.376 19.1894 153.377 20.1898C154.431 21.2424 154.906 22.7983 154.906 24.6943V31.1196C154.906 31.3748 154.855 31.6275 154.757 31.8629C154.658 32.0983 154.514 32.3118 154.333 32.4908C154.152 32.6699 153.936 32.8109 153.7 32.9058C153.464 33.0006 153.211 33.0474 152.956 33.0433C151.796 33.0433 151.032 32.2276 151.032 31.3843V31.3566C150.057 32.4369 148.711 33.1479 146.762 33.1479C144.099 33.1479 141.911 31.6213 141.911 28.8296V28.8296ZM151.112 27.9062V27.1967C150.306 26.8418 149.434 26.6619 148.554 26.6688C146.84 26.6688 145.787 27.3537 145.787 28.6187V28.6711C145.787 29.7514 146.682 30.3839 147.974 30.3839C149.845 30.3839 151.112 29.3559 151.112 27.9062ZM157.042 20.6114C157.042 19.5049 157.939 18.6108 159.045 18.6108C160.153 18.6108 161.048 19.5049 161.048 20.6114V21.2424C161.628 19.8743 162.577 18.6108 163.765 18.6108C165.002 18.6108 165.714 19.4264 165.714 20.5591C165.714 21.6118 165.028 22.2443 164.212 22.429C162.183 22.9045 161.048 24.4573 161.048 27.3014V31.0411C161.048 32.1476 160.153 33.0433 159.045 33.0433C158.515 33.0441 158.006 32.8338 157.631 32.4587C157.255 32.0835 157.043 31.5742 157.042 31.0426V20.6114V20.6114ZM166.927 15.502C166.927 14.394 167.823 13.5014 168.93 13.5014C170.038 13.5014 170.934 14.394 170.934 15.502V31.0411C170.934 32.1476 170.038 33.0433 168.93 33.0433C168.4 33.0441 167.891 32.8338 167.515 32.4587C167.14 32.0835 166.928 31.5742 166.927 31.0426V15.5005V15.502ZM174.124 36.8092C173.544 36.5999 172.858 36.1243 172.858 35.1517C172.853 34.9398 172.891 34.7292 172.968 34.532C173.045 34.3348 173.161 34.1549 173.308 34.0029C173.455 33.8509 173.631 33.7296 173.826 33.6463C174.02 33.5629 174.229 33.5191 174.44 33.5173C174.756 33.5173 174.94 33.5696 175.099 33.6235C175.441 33.7281 175.653 33.782 175.943 33.782C176.653 33.782 176.997 33.6496 177.366 32.9386L177.498 32.6216L172.675 21.4548C172.554 21.1607 172.483 20.8488 172.463 20.5314C172.463 19.4003 173.333 18.6108 174.44 18.6108C175.441 18.6108 176.021 19.1633 176.363 20.1113L179.422 28.3294L182.374 20.1374C182.69 19.2956 183.269 18.6108 184.299 18.6108C185.325 18.6108 186.194 19.4003 186.194 20.4545C186.194 20.77 186.09 21.2178 186.011 21.4025L181.081 33.228C179.895 36.0981 178.71 37.1785 176.311 37.1785C175.415 37.1785 174.782 37.0477 174.124 36.8092Z" fill="white"/>
<path fill-rule="evenodd" clip-rule="evenodd" d="M21.8919 47.6854C33.9821 47.6854 43.7838 37.8914 43.7838 25.8104C43.7838 13.7295 33.9821 3.93542 21.8919 3.93542C9.80169 3.93542 0 13.7295 0 25.8104C0 37.8914 9.80169 47.6854 21.8919 47.6854ZM26.2851 31.7411C25.556 31.7411 24.8822 31.2502 24.7533 30.5346C24.7131 30.3199 24.7207 30.0989 24.7754 29.8875C24.8301 29.6761 24.9307 29.4794 25.07 29.3114C25.2092 29.1434 25.3837 29.0083 25.581 28.9156C25.7783 28.823 25.9936 28.7752 26.2114 28.7755H34.2649V37.2183C34.2642 37.4367 34.2155 37.6522 34.1224 37.8496C34.0293 38.047 33.894 38.2214 33.7261 38.3605C33.5583 38.4996 33.3619 38.5999 33.1511 38.6544C32.9402 38.7089 32.7199 38.7162 32.5059 38.6758C31.7891 38.5465 31.298 37.8724 31.298 37.146V35.7363L31.5773 34.1758C30.3751 35.5639 28.8883 36.6755 27.2185 37.4348C25.5486 38.1942 23.735 38.5833 21.9015 38.5757C14.5479 38.5757 8.63714 32.4968 9.06384 25.0481C9.4322 18.6491 14.6124 13.415 21.0128 12.9856C23.3143 12.8232 25.6171 13.2847 27.6795 14.3218C29.7419 15.3589 31.488 16.9333 32.7346 18.8799C32.9208 19.2001 32.9787 19.5793 32.8967 19.9408C32.8146 20.3022 32.5987 20.6189 32.2926 20.8267C31.6188 21.293 30.6917 21.0468 30.2251 20.3743C28.4662 17.9042 25.3995 15.8589 21.9015 15.8589C15.1895 15.8589 10.04 22.5858 12.7445 29.6327C13.9371 32.7369 16.7612 34.9607 20.0489 35.4762C24.0872 36.1087 27.7801 34.6744 29.9074 31.5565L28.5782 31.7411H26.2851Z" fill="white"/>
</g>
<defs>
<clipPath id="clip0_1_89">
<rect width="187" height="50" fill="white" transform="translate(0 0.364746)"/>
</clipPath>
</defs>
</svg>
