<svg width="155" height="51" viewBox="0 0 155 51" fill="none" xmlns="http://www.w3.org/2000/svg">
<path d="M1.20248 27.6624L17.3881 43.8655C9.12263 42.4669 2.59963 35.9368 1.20248 27.6624Z" fill="white"/>
<path d="M0.953491 23.2635L21.7822 44.1148C23.0209 44.0485 24.2294 43.8682 25.3973 43.5841L1.48358 19.6445C1.1998 20.8137 1.01968 22.0234 0.953491 23.2635Z" fill="white"/>
<path d="M2.5204 16.5327L28.5059 42.5463C29.4523 42.1396 30.3607 41.6612 31.2242 41.1179L3.94726 13.8114C3.40449 14.6758 2.92659 15.5852 2.5204 16.5327Z" fill="white"/>
<path d="M5.70763 11.4243C9.3359 7.20388 14.7109 4.53143 20.7095 4.53143C31.6362 4.53143 40.494 13.3988 40.494 24.3374C40.494 30.3424 37.8245 35.7233 33.6086 39.3555L5.70763 11.4243Z" fill="white"/>
<path d="M61.1072 36.1978H75.6037V32.2459H65.8951V13.5273H61.1072V36.1978ZM78.6859 36.1978H83.3966V19.1949H78.6859V36.1978ZM81.0522 17.1803C82.4235 17.1803 83.6066 16.1397 83.6066 14.7893C83.6066 13.4498 82.4235 12.4093 81.0522 12.4093C79.6922 12.4093 78.5091 13.4498 78.5091 14.7893C78.5091 16.1397 79.6922 17.1803 81.0522 17.1803ZM91.8805 26.368C91.8914 24.1762 93.1963 22.8922 95.0981 22.8922C96.9891 22.8922 98.1281 24.132 98.117 26.2131V36.1978H102.828V25.3718C102.828 21.4089 100.505 18.9736 96.967 18.9736C94.4458 18.9736 92.6213 20.2133 91.8584 22.1948H91.6593V19.1949H87.1698V36.1978H91.8805V26.368ZM114.325 36.5299C118.538 36.5299 121.357 34.4819 122.021 31.3272L117.675 31.0394C117.2 32.3346 115.972 33.0098 114.413 33.0098C112.058 33.0098 110.565 31.4489 110.565 28.914V28.9029H122.131V27.6078C122.131 21.8295 118.637 18.9736 114.148 18.9736C109.15 18.9736 105.91 22.5269 105.91 27.7738C105.91 33.1648 109.105 36.5299 114.325 36.5299ZM110.565 25.9806C110.654 24.0434 112.135 22.4937 114.225 22.4937C116.26 22.4937 117.675 23.9549 117.697 25.9806H110.565ZM130.115 36.5189C132.625 36.5189 134.25 35.423 135.08 33.84H135.212V36.1978H139.68V24.7297C139.68 20.6783 136.219 18.9736 132.548 18.9736C128.368 18.9736 125.725 20.9218 125.073 24.0213L129.429 24.3755C129.75 23.2464 130.756 22.4162 132.448 22.4162C134.073 22.4162 134.958 23.2132 134.969 24.6412C134.98 25.7592 133.808 25.9252 130.856 26.2131C127.494 26.523 124.475 27.6521 124.475 31.4489C124.475 34.8141 126.875 36.5189 130.115 36.5189ZM131.464 33.2643C130.015 33.2643 128.976 32.5891 128.976 31.2939C128.976 29.9657 130.071 29.3124 131.729 29.08C132.758 28.9362 134.438 28.6926 135.002 28.3163V30.1207C135.002 31.9028 133.532 33.2643 131.464 33.2643ZM143.334 36.1978H148.045V26.5783C148.056 24.4973 149.56 23.0693 151.462 23.0693C152.103 23.0693 152.623 23.2464 153.065 23.4678L154.48 19.5713C153.861 19.1949 153.065 18.9514 152.158 18.9514C150.245 18.9514 148.697 20.0584 148.078 22.1616H147.901V19.1949H143.334V36.1978Z" fill="white"/>
</svg>
