<svg width="176" height="51" viewBox="0 0 176 51" fill="none" xmlns="http://www.w3.org/2000/svg">
<g clip-path="url(#clip0_1_75)">
<path fill-rule="evenodd" clip-rule="evenodd" d="M80.1234 32.2538C78.9062 32.5345 78.2765 32.16 78.2765 31.3538C78.2765 30.2491 79.4187 29.8069 81.0505 29.8069C81.7682 29.8069 82.4452 29.8689 82.4452 29.8689C82.4452 30.3418 81.4176 31.9554 80.1234 32.2538ZM81.3619 21.194C77.4656 21.194 74.6682 22.6268 74.6682 22.6268V26.8387C74.6682 26.8387 77.7567 25.0632 80.2624 25.0632C82.2614 25.0632 82.5072 26.1418 82.4166 27.0366C82.4166 27.0366 81.8395 26.884 80.0802 26.884C75.9328 26.884 73.8401 28.7689 73.8401 31.7908C73.8401 34.6574 76.1922 35.8553 78.1744 35.8553C81.0661 35.8553 82.3379 33.9116 82.7281 32.9897C82.9994 32.3501 83.0494 31.9189 83.2921 31.9189C83.5708 31.9189 83.477 32.2283 83.463 32.8647C83.44 33.9798 83.4932 34.8225 83.6697 35.5329H87.5046V28.6351C87.5046 24.3283 85.9806 21.194 81.3619 21.194Z" fill="white"/>
<path fill-rule="evenodd" clip-rule="evenodd" d="M106.602 28.5316C106.602 27.2717 107.773 26.1244 109.923 26.1244C112.265 26.1244 114.15 27.2525 114.573 27.5087V22.6327C114.573 22.6327 113.084 21.1994 109.425 21.1994C105.568 21.1994 102.357 23.4561 102.357 28.3139C102.357 33.1712 105.272 35.8649 109.415 35.8649C112.652 35.8649 114.581 34.0863 114.581 34.0863V29.4556C113.971 29.7967 112.27 30.9774 109.947 30.9774C107.487 30.9774 106.602 29.8452 106.602 28.5316ZM55.3469 21.5186C55.3474 21.5218 55.5917 22.5697 55.2698 23.94C55.1057 24.6369 54.8042 25.2296 55.1682 25.2296C55.4193 25.2296 55.4198 25.0212 55.7464 24.2744C56.224 23.1827 57.2307 21.1957 59.5833 21.1957C61.8198 21.1957 62.8734 22.5546 63.2224 23.827C63.488 24.7936 63.2557 25.2296 63.5796 25.2296C63.8098 25.2296 63.8895 24.728 64.1729 24.0936C64.6817 22.9572 65.7885 21.1957 68.027 21.1957C71.4046 21.1957 72.6942 23.6348 72.6942 27.2936V35.5378H67.6765V27.9374C67.6765 26.6702 67.4718 25.441 66.3166 25.441C65.2463 25.441 64.7473 27.3379 64.7473 28.5624V35.541H59.6375V27.9379C59.6375 26.3165 59.4088 25.4415 58.2693 25.4415C57.2828 25.4415 56.7073 27.1868 56.7073 28.5629V35.5384H51.6177V21.5186H55.3469ZM89.1748 21.5379C89.1769 21.539 90.0431 22.0384 91.7243 22.0384C93.4087 22.0384 94.2639 21.5379 94.2639 21.5379V35.5415H89.1748V21.5379ZM131.19 21.5379C131.192 21.539 132.058 22.0384 133.74 22.0384C135.424 22.0384 136.279 21.5379 136.279 21.5379V35.5415H131.19V21.5379ZM101 17.2744V35.5415H95.9107V17.2744H101ZM120.621 17.2744C120.622 17.276 120.832 17.801 120.832 19.3624C120.832 21.6681 120.33 23.5447 120.093 24.2598C119.968 24.6384 119.744 25.2228 120.065 25.2332C120.251 25.2389 120.362 24.9598 120.589 24.4754C120.815 23.9905 121.936 21.1989 124.882 21.1989C128.94 21.1989 129.537 24.5218 129.537 28.1202V35.541H124.447V27.8155C124.447 26.2311 124.115 25.4441 123.053 25.4441C121.77 25.4441 121.317 27.4296 121.317 28.566V35.541H116.228V17.2739L120.621 17.2744ZM141.728 21.5186C141.728 21.5218 141.972 22.5697 141.651 23.94C141.487 24.6369 141.185 25.2296 141.549 25.2296C141.8 25.2296 141.801 25.0212 142.127 24.2744C142.604 23.1827 143.612 21.1957 145.964 21.1957C148.303 21.1957 149.23 22.5608 149.603 23.827C149.853 24.6754 149.636 25.2296 149.96 25.2296C150.191 25.2296 150.27 24.728 150.554 24.0936C151.061 22.9572 152.169 21.1957 154.408 21.1957C157.785 21.1957 159.075 23.6348 159.075 27.2936V35.5378H154.057V27.9374C154.057 26.6702 153.853 25.441 152.697 25.441C151.627 25.441 151.128 27.3379 151.128 28.5624V35.541H146.018V27.9379C146.018 26.3165 145.79 25.4415 144.65 25.4415C143.664 25.4415 143.088 27.1868 143.088 28.5629V35.5384H137.999V21.5186H141.728ZM91.704 17.1327C89.9842 17.1327 88.5889 18.0431 88.5889 19.1661C88.5889 20.289 89.9837 21.1994 91.704 21.1994C93.4248 21.1994 94.8196 20.289 94.8196 19.1661C94.8196 18.0431 93.4253 17.1327 91.704 17.1327ZM133.719 17.1327C131.999 17.1327 130.604 18.0431 130.604 19.1661C130.604 20.289 131.999 21.1994 133.719 21.1994C135.44 21.1994 136.835 20.289 136.835 19.1661C136.835 18.0431 135.44 17.1327 133.719 17.1327Z" fill="white"/>
<path fill-rule="evenodd" clip-rule="evenodd" d="M167.744 32.5205C166.578 32.5205 165.719 31.0408 165.719 28.9788C165.719 26.9762 166.601 25.4382 167.704 25.4382C169.119 25.4382 169.724 26.7366 169.724 28.9788C169.724 31.3116 169.167 32.5205 167.744 32.5205ZM169.141 21.1908C166.526 21.1908 165.326 23.1518 164.805 24.2689C164.461 25.007 164.479 25.2241 164.227 25.2241C163.864 25.2241 164.166 24.6314 164.329 23.9346C164.652 22.5622 164.407 21.5137 164.407 21.5137H160.68V39.4006H165.767V33.7298C166.369 34.7512 167.484 35.8423 169.203 35.8423C172.883 35.8423 174.735 32.7293 174.735 28.5236C174.735 23.757 172.518 21.1908 169.142 21.1908" fill="white"/>
<path fill-rule="evenodd" clip-rule="evenodd" d="M33.6264 25.4232C33.9685 25.3826 34.2961 25.3805 34.5977 25.4232C34.7722 25.0232 34.8019 24.3341 34.6451 23.5836C34.4123 22.468 34.0967 21.793 33.4446 21.8982C32.7925 22.0034 32.7685 22.8118 33.0019 23.9269C33.1331 24.5545 33.3665 25.0909 33.6264 25.4232Z" fill="white"/>
<path fill-rule="evenodd" clip-rule="evenodd" d="M28.0321 26.3061C28.4982 26.5107 28.7852 26.6467 28.8972 26.5279C28.9696 26.454 28.9477 26.3128 28.8362 26.1311C28.606 25.7555 28.1326 25.3743 27.63 25.1602C26.6029 24.718 25.3774 24.8649 24.4321 25.5441C24.1201 25.7727 23.8243 26.0894 23.8665 26.2816C23.88 26.3436 23.9269 26.3904 24.0362 26.4061C24.2935 26.4352 25.1925 25.9811 26.2284 25.9175C26.9591 25.8727 27.5654 26.1014 28.0321 26.3061Z" fill="white"/>
<path fill-rule="evenodd" clip-rule="evenodd" d="M27.0958 26.8415C26.488 26.9374 26.1531 27.1379 25.938 27.3238C25.7547 27.4842 25.6411 27.6618 25.6422 27.7863C25.6427 27.8457 25.6682 27.8801 25.6885 27.8972C25.7161 27.9217 25.749 27.9353 25.7885 27.9353C25.9255 27.9353 26.2333 27.8118 26.2333 27.8118C27.0786 27.5092 27.6364 27.5462 28.189 27.6087C28.4943 27.6431 28.639 27.6618 28.7057 27.5571C28.7255 27.5269 28.7495 27.4618 28.6885 27.3629C28.5463 27.1321 27.9323 26.742 27.0958 26.8415Z" fill="white"/>
<path fill-rule="evenodd" clip-rule="evenodd" d="M31.7386 28.8062C32.1511 29.0088 32.6053 28.9292 32.7532 28.6286C32.9011 28.3281 32.6865 27.9198 32.274 27.7172C31.8615 27.5146 31.4073 27.5943 31.2594 27.8948C31.1115 28.1958 31.3261 28.6036 31.7386 28.8062Z" fill="white"/>
<path fill-rule="evenodd" clip-rule="evenodd" d="M34.391 26.4892C34.0561 26.4835 33.778 26.8512 33.7702 27.3111C33.7624 27.771 34.028 28.1475 34.3629 28.1533C34.6978 28.159 34.9759 27.7913 34.9837 27.3314C34.9915 26.872 34.7259 26.4949 34.391 26.4892Z" fill="white"/>
<path fill-rule="evenodd" clip-rule="evenodd" d="M11.8808 34.7753C11.7975 34.6707 11.6605 34.7024 11.5277 34.7337C11.435 34.7555 11.3303 34.7795 11.2152 34.7779C10.9688 34.7733 10.76 34.668 10.6428 34.4878C10.4902 34.2535 10.499 33.904 10.6672 33.504L10.7459 33.3248C11.0146 32.7217 11.4641 31.7129 10.9594 30.7514C10.5792 30.0274 9.95944 29.5769 9.21413 29.4821C8.49851 29.3915 7.76206 29.6566 7.29227 30.1748C6.55112 30.9925 6.43498 32.1056 6.57821 32.4988C6.63081 32.6425 6.7131 32.6826 6.77248 32.691C6.89852 32.7076 7.08497 32.616 7.20164 32.3019L7.23497 32.1998C7.28706 32.0337 7.38393 31.7243 7.54278 31.4764C7.73445 31.1774 8.03237 30.9717 8.38237 30.8962C8.73861 30.8196 9.1032 30.8879 9.4084 31.0879C9.92767 31.4274 10.1277 32.0639 9.9058 32.6707C9.79122 32.9847 9.60475 33.5852 9.6459 34.0785C9.72923 35.0769 10.3433 35.4779 10.8948 35.5206C11.4313 35.541 11.8063 35.2394 11.9011 35.0196C11.9568 34.8894 11.9099 34.8102 11.8792 34.7764" fill="white"/>
<path fill-rule="evenodd" clip-rule="evenodd" d="M16.9832 16.437C18.7332 14.4152 20.8868 12.6574 22.8165 11.6704C22.8831 11.636 22.954 11.7084 22.918 11.7741C22.7649 12.0517 22.4696 12.6459 22.3764 13.0964C22.3618 13.1668 22.4383 13.2194 22.4977 13.1793C23.6982 12.361 25.7862 11.4839 27.618 11.3715C27.6966 11.3668 27.7347 11.4673 27.6722 11.5157C27.3935 11.7293 27.0888 12.0251 26.8664 12.3241C26.8284 12.3751 26.8644 12.448 26.9279 12.4485C28.2138 12.4579 30.0268 12.9079 31.2086 13.5709C31.2883 13.6157 31.2315 13.7704 31.1419 13.7501C29.3539 13.3402 26.4274 13.0293 23.3868 13.7709C20.6727 14.4329 18.6009 15.4553 17.0899 16.5542C17.0134 16.61 16.9212 16.5084 16.9832 16.437ZM25.6977 36.0265L25.6982 36.0276L25.6993 36.0297L25.6977 36.0265ZM32.9133 36.8781C32.9654 36.8562 33.0008 36.7974 32.9951 36.7385C32.9878 36.6661 32.9232 36.6135 32.8508 36.6208C32.8508 36.6208 29.1169 37.1734 25.5894 35.8823C25.9737 34.6333 26.9951 35.0843 28.5393 35.2088C31.3227 35.375 33.8175 34.9682 35.6612 34.439C37.2586 33.9807 39.357 33.0765 40.9867 31.7901C41.5362 32.9974 41.7304 34.3265 41.7304 34.3265C41.7304 34.3265 42.1559 34.2505 42.5117 34.4692C42.8476 34.676 43.094 35.1057 42.9257 36.2172C42.583 38.2932 41.7007 39.9786 40.2174 41.5291C39.3143 42.501 38.2185 43.3458 36.9643 43.9603C36.2982 44.3103 35.5893 44.6129 34.8398 44.8572C29.2482 46.6838 23.5243 44.676 21.6795 40.3645C21.5321 40.0406 21.4076 39.701 21.3097 39.3463C20.5238 36.5052 21.191 33.0963 23.2774 30.9505C23.406 30.8141 23.5373 30.6521 23.5373 30.4495C23.5373 30.2802 23.4295 30.1016 23.3363 29.9745C22.6061 28.9156 20.0774 27.1115 20.5852 23.6198C20.9498 21.1115 23.1435 19.3448 25.1888 19.4495L25.7071 19.4792C26.5935 19.5318 27.3664 19.6454 28.0961 19.6761C29.3175 19.7292 30.4154 19.5516 31.7164 18.4678C32.155 18.1021 32.507 17.785 33.1023 17.6844C33.1648 17.6735 33.3206 17.6178 33.6315 17.6324C33.9492 17.6495 34.2513 17.7365 34.5226 17.9173C35.5654 18.611 35.7133 20.2917 35.7674 21.5209C35.7982 22.2224 35.8831 23.9203 35.9122 24.4078C35.9784 25.5224 36.2716 25.6792 36.8643 25.8745C37.1976 25.9844 37.507 26.0662 37.9633 26.1943C39.3435 26.5818 40.1617 26.975 40.6778 27.4802C40.9856 27.7958 41.1289 28.1313 41.1731 28.451C41.3356 29.6385 40.2513 31.1052 37.3799 32.438C34.2414 33.8948 30.4336 34.2635 27.8029 33.9703L26.881 33.8661C24.7769 33.5828 23.5764 36.302 24.8394 38.1656C25.6534 39.3666 27.8706 40.1479 30.0888 40.1484C35.1747 40.1489 39.0841 37.977 40.5382 36.1015L40.6544 35.9359C40.7263 35.8281 40.6669 35.7687 40.5778 35.8297C39.3898 36.6427 34.1128 39.8703 28.468 38.8989C28.468 38.8989 27.7821 38.7859 27.156 38.5427C26.6586 38.3489 25.617 37.8697 25.4904 36.8015C30.0456 38.2104 32.9133 36.8781 32.9133 36.8781ZM7.89311 26.0526C6.30874 26.3604 4.9124 27.2583 4.05876 28.499C3.54834 28.0734 2.59782 27.2495 2.4296 26.9281C1.06658 24.3396 3.91709 19.3073 5.90874 16.4652C10.8306 9.44177 18.5389 4.12566 22.1071 5.09024C22.6873 5.2543 24.6086 7.48189 24.6086 7.48189C24.6086 7.48189 21.0415 9.46104 17.7337 12.2199C13.2764 15.6516 9.91029 20.6396 7.89311 26.0526ZM10.5551 37.9302C10.3155 37.9713 10.0707 37.9875 9.82383 37.9812C7.43999 37.9171 4.86552 35.7713 4.60979 33.2265C4.32698 30.4135 5.76447 28.249 8.30925 27.7354C8.61342 27.674 8.98112 27.6386 9.37747 27.6594C10.8035 27.7375 12.9045 28.8323 13.3842 31.9385C13.8092 34.6896 13.1342 37.4906 10.5551 37.9302ZM42.8445 32.9489C42.8242 32.8765 42.6908 32.3906 42.508 31.8047C42.3252 31.2182 42.1362 30.8062 42.1362 30.8062C42.8695 29.7089 42.8825 28.7271 42.7846 28.1714C42.6804 27.4823 42.3934 26.8953 41.8153 26.288C41.2372 25.6813 40.0544 25.0594 38.3924 24.5927L37.5205 24.3505C37.5164 24.3146 37.4747 22.2948 37.4372 21.4276C37.4096 20.8006 37.356 19.8219 37.0523 18.8584C36.6903 17.5537 36.0601 16.412 35.2732 15.6818C37.445 13.4308 38.8008 10.9506 38.7971 8.82355C38.7909 4.73242 33.7664 3.49442 27.5743 6.05846L26.2623 6.61523C26.2565 6.6095 23.8904 4.28816 23.855 4.25691C16.7951 -1.90087 -5.27765 22.6339 1.77908 28.5927L3.32126 29.8995C2.92126 30.9359 2.76397 32.1234 2.89261 33.4C3.0572 35.0401 3.90303 36.6119 5.27437 37.8265C6.57593 38.9796 8.28738 39.7098 9.94778 39.7083C12.6941 46.0369 18.9691 49.9192 26.3263 50.1379C34.2185 50.3723 40.8435 46.6692 43.6195 40.0171C43.8012 39.5505 44.5716 37.4468 44.5716 35.5896C44.5716 33.7234 43.5164 32.9489 42.8445 32.9489Z" fill="white"/>
</g>
<defs>
<clipPath id="clip0_1_75">
<rect width="175" height="50" fill="white" transform="translate(0.405151 0.547363)"/>
</clipPath>
</defs>
</svg>
