<svg width="158" height="34" viewBox="0 0 158 34" fill="none" xmlns="http://www.w3.org/2000/svg">
<g clip-path="url(#clip0_1_35)">
<path d="M158 15.2842V12.5008H154.549V8.17416L154.433 8.20971L151.192 9.20313L151.129 9.2226V12.5008H146.013V10.6747C146.013 9.8244 146.203 9.17346 146.577 8.7398C146.949 8.31078 147.48 8.09287 148.158 8.09287C148.645 8.09287 149.15 8.20786 149.658 8.43442L149.785 8.49129V5.56049L149.725 5.53886C149.251 5.36793 148.607 5.28231 147.808 5.28231C146.802 5.28231 145.887 5.50146 145.09 5.93635C144.304 6.35975 143.656 7.00104 143.224 7.78347C142.786 8.57289 142.564 9.4844 142.564 10.4933V12.5011H140.161V15.2845H142.564V27.0092H146.013V15.2842H151.129V22.7351C151.129 25.8038 152.573 27.3591 155.424 27.3591C155.916 27.3562 156.407 27.3015 156.888 27.1959C157.4 27.0856 157.749 26.9752 157.955 26.8575L158 26.8306V24.0216L157.86 24.1146C157.673 24.2398 157.44 24.3418 157.166 24.4175C156.892 24.4948 156.662 24.5337 156.485 24.5337C155.817 24.5337 155.323 24.3535 155.017 23.9978C154.707 23.6392 154.549 23.0115 154.549 22.1336V15.2842H158ZM132.458 24.534C131.206 24.534 130.219 24.118 129.524 23.2992C128.824 22.4758 128.469 21.3025 128.469 19.8111C128.469 18.2728 128.824 17.0689 129.524 16.2309C130.22 15.3989 131.198 14.9763 132.43 14.9763C133.626 14.9763 134.578 15.3797 135.26 16.1762C135.945 16.9765 136.293 18.1708 136.293 19.7271C136.293 21.3025 135.966 22.5129 135.321 23.3224C134.681 24.126 133.718 24.534 132.458 24.534ZM132.612 12.1512C130.223 12.1512 128.326 12.8523 126.974 14.2348C125.622 15.6177 124.937 17.531 124.937 19.9227C124.937 22.1942 125.606 24.0213 126.925 25.3525C128.245 26.6841 130.041 27.3585 132.262 27.3585C134.578 27.3585 136.437 26.6479 137.789 25.2462C139.141 23.846 139.826 21.9507 139.826 19.6145C139.826 17.3078 139.183 15.4672 137.915 14.1449C136.646 12.822 134.862 12.1512 132.612 12.1512ZM119.375 12.1512C117.75 12.1512 116.407 12.5676 115.38 13.3882C114.347 14.2138 113.823 15.2969 113.823 16.6071C113.823 17.288 113.936 17.8929 114.159 18.406C114.383 18.9209 114.729 19.3741 115.19 19.7546C115.646 20.132 116.352 20.5273 117.286 20.9291C118.072 21.253 118.658 21.5272 119.03 21.7429C119.394 21.9547 119.652 22.1673 119.798 22.3744C119.939 22.5769 120.011 22.8544 120.011 23.1966C120.011 24.1715 119.283 24.6456 117.783 24.6456C117.227 24.6456 116.592 24.5294 115.897 24.3001C115.207 24.0741 114.556 23.7433 113.966 23.3193L113.823 23.2167V26.5425L113.876 26.5672C114.364 26.7929 114.979 26.983 115.704 27.1329C116.428 27.2825 117.086 27.3588 117.657 27.3588C119.42 27.3588 120.84 26.9406 121.876 26.115C122.919 25.2836 123.447 24.1755 123.447 22.8195C123.447 21.8419 123.163 21.003 122.602 20.3267C122.045 19.656 121.079 19.0399 119.731 18.4956C118.657 18.0638 117.969 17.7056 117.685 17.4305C117.411 17.1647 117.272 16.7888 117.272 16.3131C117.272 15.8909 117.444 15.5531 117.796 15.2792C118.151 15.0041 118.645 14.8641 119.264 14.8641C119.839 14.8641 120.427 14.955 121.011 15.133C121.596 15.3114 122.109 15.5503 122.537 15.8421L122.678 15.9385V12.7833L122.624 12.7601C122.229 12.5901 121.708 12.4449 121.075 12.3274C120.444 12.2106 119.872 12.1512 119.375 12.1512ZM104.831 24.534C103.58 24.534 102.592 24.118 101.897 23.2992C101.197 22.4758 100.843 21.3025 100.843 19.8111C100.843 18.2728 101.197 17.0689 101.898 16.2309C102.593 15.3989 103.57 14.9763 104.803 14.9763C105.999 14.9763 106.951 15.3797 107.633 16.1762C108.319 16.9765 108.666 18.1708 108.666 19.7271C108.666 21.3025 108.339 22.5129 107.694 23.3224C107.054 24.126 106.091 24.534 104.831 24.534ZM104.985 12.1512C102.596 12.1512 100.699 12.8523 99.3471 14.2348C97.9955 15.6177 97.3095 17.531 97.3095 19.9227C97.3095 22.1951 97.9792 24.0213 99.2984 25.3525C100.618 26.6841 102.414 27.3585 104.636 27.3585C106.95 27.3585 108.81 26.6479 110.163 25.2462C111.514 23.846 112.199 21.9507 112.199 19.6145C112.199 17.3078 111.556 15.4672 110.288 14.1449C109.019 12.822 107.234 12.1512 104.985 12.1512ZM92.0736 15.0134V12.5008H88.6664V27.0086H92.0733V19.587C92.0733 18.325 92.359 17.2883 92.9228 16.5054C93.4792 15.7317 94.2211 15.3395 95.1262 15.3395C95.4333 15.3395 95.7776 15.3902 96.1507 15.4907C96.5201 15.5902 96.7877 15.6984 96.9454 15.8121L97.0885 15.9163V12.4761L97.033 12.4523C96.7161 12.3172 96.2671 12.2492 95.6993 12.2492C94.8429 12.2492 94.0767 12.5246 93.4206 13.0671C92.8445 13.544 92.4279 14.198 92.1097 15.0134H92.0736ZM82.5649 12.1512C81.0019 12.1512 79.6073 12.4872 78.4214 13.149C77.2333 13.812 76.314 14.7593 75.6888 15.9633C75.0664 17.1647 74.7504 18.568 74.7504 20.1329C74.7504 21.5034 75.0568 22.7614 75.6623 23.8698C76.2683 24.9804 77.1262 25.8492 78.2119 26.4519C79.2963 27.0537 80.5495 27.3588 81.9366 27.3588C83.5558 27.3588 84.9383 27.0346 86.0471 26.3954L86.0915 26.3694V23.243L85.9486 23.3477C85.4386 23.7179 84.8769 24.0108 84.2816 24.2169C83.6792 24.4274 83.1305 24.5337 82.6491 24.5337C81.312 24.5337 80.239 24.1149 79.4598 23.289C78.6791 22.4616 78.2832 21.3003 78.2832 19.8386C78.2832 18.368 78.6961 17.1767 79.5095 16.2974C80.3208 15.4211 81.3959 14.9766 82.7053 14.9766C83.8252 14.9766 84.9164 15.3565 85.9486 16.1067L86.0915 16.2105V12.9162L86.0455 12.8903C85.6567 12.6724 85.1271 12.4925 84.4692 12.3562C83.8144 12.2202 83.1738 12.1512 82.5649 12.1512ZM72.4038 12.5008H68.9963V27.0086H72.4038V12.5008ZM70.7349 6.32055C70.1742 6.32055 69.6851 6.51187 69.2833 6.89051C68.8797 7.27069 68.6748 7.74916 68.6748 8.31356C68.6748 8.86931 68.8772 9.33882 69.2765 9.7088C69.6737 10.0775 70.1644 10.2645 70.7349 10.2645C71.3052 10.2645 71.7977 10.0775 72.1995 9.70942C72.6038 9.33882 72.809 8.86931 72.809 8.31356C72.809 7.76895 72.6093 7.29511 72.2162 6.90596C71.8234 6.51744 71.3247 6.32055 70.7349 6.32055ZM62.2338 11.4307V27.0083H65.711V6.76471H60.8985L54.7813 21.8011L48.8452 6.76471H43.8367V27.0086H47.1044V11.4292H47.2167L53.4852 27.0086H55.9508L62.1215 11.4304L62.2338 11.4307Z" fill="white"/>
<path d="M16.0281 16.0539H0V0H16.0281V16.0539Z" fill="white"/>
<path d="M33.7253 16.0539H17.6973V-7.62939e-06H33.7253V16.0539Z" fill="white"/>
<path d="M16.0278 33.7855H3.8147e-05V17.7317H16.0278V33.7855Z" fill="white"/>
<path d="M33.7253 33.7855H17.6973V17.7317H33.7253V33.7855Z" fill="white"/>
</g>
<defs>
<clipPath id="clip0_1_35">
<rect width="158" height="34" fill="white"/>
</clipPath>
</defs>
</svg>
