<svg width="135" height="51" viewBox="0 0 135 51" fill="none" xmlns="http://www.w3.org/2000/svg">
<g clip-path="url(#clip0_1_73)">
<path d="M47.2269 36.7711V21.6096H47.4962L58.5016 36.7711H61.9648V14.5062H58.1168V29.6295H57.8474L46.8421 14.5062H43.3789V36.7711H47.2269ZM72.8546 37.1148C77.934 37.1148 81.0509 33.8305 81.0509 28.3311C81.0509 22.8699 77.934 19.5473 72.8546 19.5473C67.8137 19.5473 64.6584 22.8699 64.6584 28.3311C64.6969 33.8305 67.7753 37.1148 72.8546 37.1148ZM72.8546 33.9068C70.161 33.9068 68.6218 31.8828 68.6218 28.3311C68.6218 24.8176 70.161 22.7553 72.8546 22.7553C75.5482 22.7553 77.0875 24.8176 77.0875 28.3311C77.0875 31.8828 75.5482 33.9068 72.8546 33.9068ZM84.5526 15.7665V20.0056H81.859V23.0608H84.5526V32.2647C84.5526 35.549 86.0918 36.8475 90.0168 36.8475C90.7479 36.8475 91.479 36.7711 92.0562 36.6565V33.6777C91.5945 33.7159 91.2866 33.7541 90.7479 33.7541C89.1317 33.7541 88.4006 33.0285 88.4006 31.3481V23.0608H92.0562V20.0056H88.4006V15.7665H84.5526ZM94.365 36.7711H98.213V19.891H94.365V36.7711ZM96.289 17.1031C97.5589 17.1031 98.5978 16.072 98.5978 14.8117C98.5978 13.5133 97.5589 12.4821 96.289 12.4821C95.0192 12.4821 93.9802 13.5133 93.9802 14.8117C93.9802 16.072 95.0192 17.1031 96.289 17.1031ZM108.757 37.1148C113.836 37.1148 116.953 33.8305 116.953 28.3311C116.953 22.8699 113.836 19.5473 108.757 19.5473C103.716 19.5473 100.56 22.8699 100.56 28.3311C100.56 33.8305 103.639 37.1148 108.757 37.1148ZM108.757 33.9068C106.063 33.9068 104.524 31.8828 104.524 28.3311C104.524 24.8176 106.063 22.7553 108.757 22.7553C111.412 22.7553 112.989 24.8176 112.989 28.3311C112.951 31.8828 111.412 33.9068 108.757 33.9068ZM119.223 36.7711H123.071V26.9562C123.071 24.4739 124.533 22.9081 126.804 22.9081C129.151 22.9081 130.228 24.2065 130.228 26.7653V36.7711H134.077V25.8487C134.077 21.8005 131.999 19.5473 128.228 19.5473C125.688 19.5473 123.995 20.693 123.187 22.6025H122.917V19.891H119.185C119.223 19.891 119.223 36.7711 119.223 36.7711Z" fill="white"/>
<path fill-rule="evenodd" clip-rule="evenodd" d="M6.48301 13.0812C7.60298 13.9872 8.00808 13.9157 10.105 13.7726L29.8594 12.5805C30.2883 12.5805 29.9309 12.1513 29.7879 12.1036L26.4995 9.74312C25.8799 9.26626 25.0221 8.69402 23.4255 8.83708L4.31456 10.2438C3.62352 10.3154 3.48054 10.673 3.76649 10.9353L6.48301 13.0812ZM7.67447 17.6829V38.4741C7.67447 39.5948 8.22254 40.0001 9.48549 39.9286L31.1938 38.6649C32.4568 38.5934 32.5997 37.8304 32.5997 36.9243V16.2762C32.5997 15.3701 32.2423 14.8694 31.4798 14.9409L8.79444 16.2762C7.96042 16.3477 7.67447 16.7769 7.67447 17.6829ZM29.0969 18.8035C29.2398 19.4235 29.0969 20.0672 28.4773 20.1387L27.4288 20.3533V35.7083C26.5233 36.1852 25.6893 36.4713 24.9744 36.4713C23.8545 36.4713 23.5685 36.1137 22.7345 35.0646L15.8955 24.3113V34.7069L18.064 35.1838C18.064 35.1838 18.064 36.4475 16.3244 36.4475L11.511 36.7336C11.368 36.4475 11.511 35.756 11.9875 35.613L13.2505 35.2553V21.5216L11.511 21.3786C11.368 20.7587 11.7254 19.8526 12.7024 19.7811L17.8733 19.4234L24.9982 30.2959V20.6871L23.1872 20.4726C23.0443 19.7096 23.6162 19.1373 24.3072 19.0658L29.0969 18.8035ZM2.71801 8.33637L22.6153 6.88194C25.0459 6.66735 25.6893 6.81041 27.2144 7.93104L33.5529 12.3897C34.6014 13.1527 34.9588 13.3673 34.9588 14.2018V38.6887C34.9588 40.2147 34.4107 41.1207 32.4568 41.2638L9.36634 42.6705C7.88893 42.7421 7.19789 42.5275 6.43536 41.5499L1.74102 35.4699C0.906997 34.3493 0.549561 33.5148 0.549561 32.5372V10.7684C0.549561 9.50469 1.12146 8.47943 2.71801 8.33637Z" fill="white"/>
</g>
<defs>
<clipPath id="clip0_1_73">
<rect width="134" height="50" fill="white" transform="translate(0.549561 0.547363)"/>
</clipPath>
</defs>
</svg>
