<svg width="126" height="50" viewBox="0 0 126 50" fill="none" xmlns="http://www.w3.org/2000/svg">
<g clip-path="url(#clip0_1_61)">
<path d="M39.4921 33.7774L41.0209 30.203C42.6948 31.443 44.8781 32.0993 47.0619 32.0993C48.6632 32.0993 49.6821 31.4796 49.6821 30.5314C49.6455 27.9051 40.0381 29.9477 39.965 23.3449C39.9284 19.9893 42.9129 17.3996 47.135 17.3996C49.6455 17.3996 52.1571 18.0198 53.9401 19.4426L52.5115 23.0933C50.8711 22.0381 48.8449 21.3024 46.9163 21.3024C45.6062 21.3024 44.7324 21.9222 44.7324 22.7252C44.769 25.3149 54.4501 23.8921 54.5591 30.203C54.5591 33.6317 51.6472 36.0392 47.4982 36.0392C44.4417 36.0392 41.6394 35.3098 39.4916 33.7774H39.4921ZM100.366 28.9087C99.9799 29.5945 99.4185 30.1654 98.7393 30.5627C98.0601 30.96 97.2875 31.1694 96.5007 31.1694C94.0486 31.1694 92.0611 29.177 92.0611 26.7194C92.0611 24.2618 94.0486 22.2694 96.5007 22.2694C97.2875 22.2694 98.0601 22.4788 98.7393 22.8761C99.4185 23.2734 99.9799 23.8443 100.366 24.5302L104.616 22.1702C103.024 19.3241 99.9873 17.3996 96.5007 17.3996C91.3653 17.3996 87.2022 21.5718 87.2022 26.7194C87.2022 31.8665 91.3653 36.0392 96.5007 36.0392C99.9873 36.0392 103.024 34.1147 104.616 31.2686L100.366 28.9087ZM57.3171 35.6743H62.6305V9.64139H57.3176L57.3171 35.6743ZM107.299 9.64139V35.6743H112.613V27.8749L118.909 35.6743H125.701L117.694 26.4087L125.118 17.763H118.618L112.613 24.951V9.64139H107.299ZM79.0004 17.764V19.8802C78.1271 18.4208 75.9799 17.3996 73.7235 17.3996C69.0651 17.3996 65.3895 21.5217 65.3895 26.7011C65.3895 31.8806 69.0651 36.0392 73.7235 36.0392C75.9799 36.0392 78.1271 35.018 79.0004 33.5586V35.6743H84.3138V17.764H79.0004ZM79.0004 28.9447C78.2362 30.2213 76.6349 31.1689 74.8519 31.1689C72.3993 31.1689 70.4117 29.177 70.4117 26.7194C70.4117 24.2618 72.3993 22.2694 74.8519 22.2694C76.6349 22.2694 78.2362 23.2541 79.0004 24.5667V28.9447Z" fill="white"/>
<path d="M11.4319 9.06589C9.71 9.06589 8.31431 10.4652 8.31431 12.1908C8.3139 12.6007 8.39421 13.0068 8.55066 13.3857C8.70711 13.7646 8.93664 14.1089 9.22613 14.3991C9.51563 14.6893 9.85942 14.9196 10.2379 15.0768C10.6164 15.2341 11.0221 15.3152 11.4319 15.3157H14.55V12.1908C14.5507 11.3628 14.2226 10.5684 13.6379 9.98241C13.0531 9.3964 12.2596 9.06672 11.4319 9.06589V9.06589ZM11.4319 17.3989H3.1178C1.3959 17.3989 0.000213623 18.7982 0.000213623 20.5243C0.000213623 22.2499 1.3959 23.6492 3.1178 23.6492H11.4324C13.1538 23.6492 14.55 22.2499 14.55 20.5243C14.55 18.7982 13.1538 17.3989 11.4319 17.3989" fill="white"/>
<path d="M31.1783 20.5243C31.1783 18.7982 29.7821 17.3989 28.0602 17.3989C26.3383 17.3989 24.9426 18.7982 24.9426 20.5243V23.6492H28.0602C28.8879 23.6484 29.6814 23.3187 30.2662 22.7327C30.8509 22.1467 31.179 21.3523 31.1783 20.5243V20.5243ZM22.8642 20.5243V12.1908C22.8649 11.3628 22.5368 10.5684 21.9521 9.98241C21.3673 9.3964 20.5738 9.06672 19.7461 9.06589C18.0242 9.06589 16.6285 10.4652 16.6285 12.1908V20.5238C16.6285 22.2505 18.0242 23.6497 19.7461 23.6497C20.5738 23.6489 21.3673 23.3192 21.9521 22.7332C22.5368 22.1472 22.8649 21.3528 22.8642 20.5249" fill="white"/>
<path d="M19.7461 40.3159C20.5738 40.3151 21.3673 39.9854 21.9521 39.3994C22.5368 38.8134 22.8649 38.019 22.8642 37.191C22.8649 36.3631 22.5368 35.5687 21.9521 34.9827C21.3673 34.3967 20.5738 34.067 19.7461 34.0662H16.6285V37.191C16.6285 38.9167 18.0242 40.3159 19.7461 40.3159ZM19.7461 31.9829H28.0608C29.7821 31.9829 31.1783 30.5836 31.1783 28.8575C31.179 28.0295 30.8509 27.2351 30.2662 26.6491C29.6814 26.0631 28.8879 25.7334 28.0602 25.7326H19.7461C18.0242 25.7326 16.6285 27.1319 16.6285 28.8575C16.6281 29.2674 16.7084 29.6735 16.8649 30.0524C17.0213 30.4313 17.2509 30.7757 17.5404 31.0658C17.8299 31.356 18.1737 31.5863 18.5521 31.7436C18.9306 31.9008 19.3363 31.982 19.7461 31.9824" fill="white"/>
<path d="M-8.99797e-05 28.8575C-0.000501445 29.2674 0.079811 29.6735 0.236262 30.0524C0.392713 30.4313 0.622238 30.7757 0.911734 31.0658C1.20123 31.356 1.54502 31.5863 1.92349 31.7436C2.30196 31.9008 2.70768 31.982 3.1175 31.9824C3.94522 31.9815 4.73871 31.6519 5.32345 31.0659C5.9082 30.4798 6.23631 29.6855 6.23561 28.8575V25.7326H3.1175C1.3956 25.7326 -8.99797e-05 27.1319 -8.99797e-05 28.8575V28.8575ZM8.31401 28.8575V37.1905C8.31401 38.9167 9.70969 40.3159 11.4316 40.3159C12.2593 40.3151 13.0528 39.9854 13.6375 39.3994C14.2223 38.8134 14.5504 38.019 14.5497 37.191V28.8575C14.5501 28.4475 14.4698 28.0414 14.3133 27.6625C14.1568 27.2835 13.9273 26.9392 13.6377 26.649C13.3482 26.3588 13.0043 26.1285 12.6258 25.9713C12.2472 25.8141 11.8415 25.7329 11.4316 25.7326C9.70969 25.7326 8.31401 27.1319 8.31401 28.8575Z" fill="white"/>
</g>
<defs>
<clipPath id="clip0_1_61">
<rect width="126" height="50" fill="white"/>
</clipPath>
</defs>
</svg>
