<svg width="131" height="45" viewBox="0 0 131 45" fill="none" xmlns="http://www.w3.org/2000/svg">
<g clip-path="url(#clip0_1_58)">
<path d="M19.718 2.88658C8.86562 2.88658 0.067627 11.7011 0.067627 22.5742C0.067627 33.4477 8.86562 42.2616 19.718 42.2616C30.5715 42.2616 39.3686 33.4477 39.3686 22.5742C39.3686 11.7018 30.5715 2.88752 19.7178 2.88752L19.718 2.88658V2.88658ZM28.7295 31.2818C28.3775 31.8601 27.622 32.0435 27.0447 31.6885C22.431 28.865 16.6229 28.2255 9.78287 29.7912C9.12374 29.9417 8.46672 29.5279 8.31654 28.8673C8.16566 28.2067 8.577 27.5484 9.23778 27.3979C16.7231 25.6845 23.1439 26.4223 28.3236 29.5938C28.9008 29.9488 29.0838 30.7034 28.7295 31.2818V31.2818ZM31.1347 25.9211C30.6912 26.6433 29.7479 26.8713 29.0275 26.427C23.7455 23.1742 15.694 22.2321 9.44638 24.1322C8.63613 24.3774 7.78036 23.9199 7.53445 23.1095C7.29041 22.2977 7.74728 21.442 8.55612 21.1951C15.6926 19.0256 24.5645 20.0765 30.6302 23.811C31.3506 24.2554 31.5782 25.2005 31.1347 25.9213V25.9211ZM31.3412 20.3389C25.0079 16.57 14.559 16.2235 8.51224 18.0622C7.54125 18.3572 6.51442 17.808 6.22017 16.8352C5.92592 15.8619 6.47359 14.8338 7.44528 14.5381C14.3865 12.4269 25.9254 12.8348 33.217 17.1716C34.0922 17.691 34.3785 18.8211 33.8599 19.6949C33.3437 20.57 32.2127 20.8584 31.3421 20.3389H31.3412ZM53.5297 21.0611C50.1367 20.2505 49.5336 19.6815 49.5336 18.4861C49.5336 17.3567 50.5943 16.5966 52.1735 16.5966C53.7034 16.5966 55.2192 17.1737 56.8102 18.3619C56.8571 18.3979 56.9181 18.4122 56.9768 18.4028C57.0378 18.3939 57.0894 18.3612 57.1246 18.3121L58.7812 15.9724C58.8493 15.876 58.8305 15.7432 58.739 15.6696C56.8454 14.1478 54.7147 13.4079 52.2227 13.4079C48.5598 13.4079 45.9998 15.6106 45.9998 18.7621C45.9998 22.1416 48.2079 23.3383 52.0233 24.262C55.2685 25.0112 55.8176 25.6389 55.8176 26.7608C55.8176 28.0045 54.71 28.778 52.9267 28.778C50.9462 28.778 49.3295 28.1079 47.5227 26.5422C47.4781 26.5022 47.4171 26.4858 47.3608 26.4881C47.2998 26.4928 47.2458 26.521 47.2083 26.5657L45.3498 28.7803C45.2724 28.8744 45.2818 29.0107 45.3709 29.0907C47.4734 30.9714 50.0593 31.9636 52.8516 31.9636C56.7984 31.9636 59.3491 29.803 59.3491 26.4576C59.3561 23.6347 57.669 22.0713 53.5368 21.0642L53.5297 21.0611V21.0611ZM68.2799 17.7086C66.5693 17.7086 65.1661 18.3838 64.0069 19.7674V18.2101C64.0069 18.0871 63.9084 17.987 63.7863 17.987H60.7476C60.6256 17.987 60.527 18.0871 60.527 18.2101V35.5135C60.527 35.6358 60.6256 35.7369 60.7476 35.7369H63.7863C63.9084 35.7369 64.0069 35.6358 64.0069 35.5135V30.0522C65.1661 31.3523 66.5693 31.9894 68.2799 31.9894C71.4594 31.9894 74.6788 29.5373 74.6788 24.8497C74.6835 20.1611 71.4641 17.7084 68.2822 17.7084L68.2799 17.7086ZM71.145 24.8497C71.145 27.2357 69.6784 28.9026 67.5759 28.9026C65.4993 28.9026 63.9318 27.1605 63.9318 24.8497C63.9318 22.5387 65.4993 20.7971 67.5759 20.7971C69.6432 20.7969 71.145 22.5008 71.145 24.8495V24.8497ZM82.9268 17.7086C78.8321 17.7086 75.6245 20.8674 75.6245 24.9007C75.6245 28.8908 78.811 32.0153 82.8775 32.0153C86.9863 32.0153 90.2033 28.8673 90.2033 24.8497C90.2033 20.8458 87.0074 17.7091 82.9268 17.7091V17.7086V17.7086ZM82.9268 28.9261C80.7492 28.9261 79.1067 27.1722 79.1067 24.8485C79.1067 22.5142 80.6929 20.8204 82.8775 20.8204C85.0692 20.8204 86.7211 22.5735 86.7211 24.8996C86.7211 27.2334 85.1255 28.9261 82.9268 28.9261V28.9261ZM98.9464 17.987H95.6026V14.5625C95.6026 14.4398 95.5041 14.3396 95.3821 14.3396H92.3433C92.2213 14.3396 92.1204 14.4398 92.1204 14.5625V17.987H90.6609C90.5389 17.987 90.4403 18.0871 90.4403 18.2101V20.826C90.4403 20.9487 90.5389 21.0491 90.6609 21.0491H92.1204V27.8188C92.1204 30.553 93.479 31.94 96.1611 31.94C97.2499 31.94 98.1533 31.7144 99.0051 31.23C99.0755 31.1924 99.1177 31.1172 99.1177 31.0373V28.5452C99.1177 28.47 99.0778 28.3971 99.0121 28.3571C98.9464 28.3148 98.8643 28.3125 98.7962 28.3477C98.2119 28.6416 97.6464 28.778 97.0129 28.778C96.0391 28.778 95.6026 28.3336 95.6026 27.3415V21.0503H98.9464C99.0684 21.0503 99.167 20.9501 99.167 20.8272V18.2115C99.1717 18.0885 99.0731 17.9884 98.9487 17.9884L98.9464 17.987V17.987ZM110.594 18.0004V17.5798C110.594 16.3424 111.068 15.7907 112.129 15.7907C112.763 15.7907 113.272 15.9167 113.842 16.1071C113.912 16.1292 113.985 16.1182 114.041 16.0761C114.1 16.034 114.133 15.9665 114.133 15.895V13.3301C114.133 13.2321 114.072 13.1453 113.976 13.1164C113.375 12.937 112.605 12.753 111.451 12.753C108.647 12.753 107.162 14.3361 107.162 17.3296V17.9738H105.702C105.58 17.9738 105.479 18.0739 105.479 18.1967V20.826C105.479 20.9487 105.58 21.0491 105.702 21.0491H107.162V31.4887C107.162 31.6133 107.262 31.712 107.384 31.712H110.421C110.545 31.712 110.644 31.6133 110.644 31.4887V21.0498H113.481L117.826 31.4887C117.334 32.5842 116.848 32.8029 116.186 32.8029C115.651 32.8029 115.086 32.643 114.511 32.3256C114.457 32.2974 114.391 32.2927 114.335 32.3092C114.276 32.3303 114.227 32.3726 114.203 32.4291L113.173 34.6931C113.124 34.8012 113.166 34.9258 113.269 34.9822C114.344 35.5653 115.313 35.8145 116.512 35.8145C118.756 35.8145 119.997 34.7659 121.088 31.9495L126.358 18.305C126.386 18.2364 126.377 18.1588 126.335 18.0979C126.295 18.0375 126.227 18.0011 126.154 18.0011H122.991C122.895 18.0011 122.81 18.0615 122.78 18.1506L119.539 27.4215L115.991 18.1445C115.959 18.0582 115.876 18.0011 115.785 18.0011H110.594V18.0004V18.0004ZM103.841 17.987H100.802C100.68 17.987 100.58 18.0871 100.58 18.2101V31.4887C100.58 31.6133 100.68 31.712 100.802 31.712H103.841C103.963 31.712 104.064 31.6133 104.064 31.4887V18.211C104.064 18.088 103.966 17.9879 103.841 17.9879V17.987ZM102.339 11.9405C101.136 11.9405 100.16 12.9166 100.16 14.1224C100.16 15.3289 101.136 16.3062 102.339 16.3062C103.543 16.3062 104.517 15.3289 104.517 14.1224C104.517 12.9168 103.541 11.9405 102.339 11.9405ZM128.954 22.2566C127.752 22.2566 126.816 21.2891 126.816 20.1144C126.816 18.9396 127.764 17.9611 128.965 17.9611C130.167 17.9611 131.103 18.9283 131.103 20.1021C131.103 21.2769 130.155 22.2566 128.954 22.2566ZM128.965 18.1741C127.869 18.1741 127.041 19.0463 127.041 20.1144C127.041 21.1819 127.865 22.0424 128.954 22.0424C130.049 22.0424 130.878 21.1709 130.878 20.1021C130.878 19.0346 130.054 18.1741 128.965 18.1741V18.1741ZM129.439 20.3224L130.045 21.1707H129.533L128.989 20.3925H128.522V21.1707H128.095V18.9222H129.094C129.618 18.9222 129.96 19.1895 129.96 19.6395C129.963 20.0081 129.749 20.2333 129.442 20.3224H129.439ZM129.078 19.308H128.522V20.0191H129.078C129.355 20.0191 129.521 19.883 129.521 19.6632C129.521 19.4319 129.355 19.308 129.078 19.308V19.308Z" fill="white"/>
</g>
<defs>
<clipPath id="clip0_1_58">
<rect width="131" height="45" fill="white"/>
</clipPath>
</defs>
</svg>
